<svg width="1920" height="1080" viewBox="0 0 1920 1080" fill="none" xmlns="http://www.w3.org/2000/svg">
<g clip-path="url(#clip0)">
<rect x="64" y="885" width="98" height="195" fill="#AB519D"/>
<rect x="344" y="840" width="92" height="240" fill="#AB519D"/>
<rect x="475" y="894" width="92" height="186" fill="#AB519D"/>
<rect width="114" height="193" transform="matrix(-1 0 0 1 928 887)" fill="#AB519D"/>
<rect width="85" height="274" transform="matrix(-1 0 0 1 1226 806)" fill="#AB519D"/>
<rect width="73" height="217" transform="matrix(-1 0 0 1 1431 863)" fill="#AB519D"/>
<rect width="98" height="253" transform="matrix(-1 0 0 1 1825 827)" fill="#AB519D"/>
<rect x="-29" y="751" width="101" height="329" fill="#843B7C"/>
<rect x="244" y="814" width="120" height="266" fill="#843B7C"/>
<path fill-rule="evenodd" clip-rule="evenodd" d="M341.5 811V797H350.5V811H341.5ZM364 814V794H244V814H364ZM329.5 811H338.5V797H329.5V811ZM326.5 811H317.5V797H326.5V811ZM314.5 797V811H305.5V797H314.5ZM302.5 797V811H293.5V797H302.5ZM290.5 797V811H281.5V797H290.5ZM278.5 797V811H269.5V797H278.5ZM266.5 797V811H257.5V797H266.5ZM254.5 797V811H247V797H254.5ZM361 797V811H353.5V797H361Z" fill="#843B7C"/>
<rect x="115" y="677" width="142" height="403" fill="#F8E8F9"/>
<path fill-rule="evenodd" clip-rule="evenodd" d="M115 677H257V1080H115V677ZM125.549 696.153H139.809V706.176H125.549V696.153ZM139.809 716.199H125.549V726.222H139.809V716.199ZM125.549 736.245H139.809V746.268H125.549V736.245ZM139.809 756.291H125.549V766.314H139.809V756.291ZM125.549 776.337H139.809V786.36H125.549V776.337ZM161.199 696.153H146.939V706.176H161.199V696.153ZM146.939 716.199H161.199V726.222H146.939V716.199ZM161.199 736.245H146.939V746.268H161.199V736.245ZM146.939 756.291H161.199V766.314H146.939V756.291ZM161.199 776.337H146.939V786.36H161.199V776.337ZM168.329 696.153H182.589V706.176H168.329V696.153ZM182.589 716.199H168.329V726.222H182.589V716.199ZM168.329 736.245H182.589V746.268H168.329V736.245ZM182.589 756.291H168.329V766.314H182.589V756.291ZM168.329 776.337H182.589V786.36H168.329V776.337ZM203.98 696.153H189.719V706.176H203.98V696.153ZM189.719 716.199H203.98V726.222H189.719V716.199ZM203.98 736.245H189.719V746.268H203.98V736.245ZM189.719 756.291H203.98V766.314H189.719V756.291ZM203.98 776.337H189.719V786.36H203.98V776.337ZM211.11 696.153H225.37V706.176H211.11V696.153ZM225.37 716.199H211.11V726.222H225.37V716.199ZM211.11 736.245H225.37V746.268H211.11V736.245ZM225.37 756.291H211.11V766.314H225.37V756.291ZM211.11 776.337H225.37V786.36H211.11V776.337ZM246.76 696.153H232.5V706.176H246.76V696.153ZM232.5 716.199H246.76V726.222H232.5V716.199ZM246.76 736.245H232.5V746.268H246.76V736.245ZM232.5 756.291H246.76V766.314H232.5V756.291ZM246.76 776.337H232.5V786.36H246.76V776.337ZM125.549 796.182H139.809V806.205H125.549V796.182ZM139.809 816.228H125.549V826.251H139.809V816.228ZM125.549 836.274H139.809V846.297H125.549V836.274ZM139.809 856.32H125.549V866.343H139.809V856.32ZM125.549 876.366H139.809V886.389H125.549V876.366ZM161.199 796.182H146.939V806.205H161.199V796.182ZM146.939 816.228H161.199V826.251H146.939V816.228ZM161.199 836.274H146.939V846.297H161.199V836.274ZM146.939 856.32H161.199V866.343H146.939V856.32ZM161.199 876.366H146.939V886.389H161.199V876.366ZM168.329 796.182H182.589V806.205H168.329V796.182ZM182.589 816.228H168.329V826.251H182.589V816.228ZM168.329 836.274H182.589V846.297H168.329V836.274ZM182.589 856.32H168.329V866.343H182.589V856.32ZM168.329 876.366H182.589V886.389H168.329V876.366ZM203.98 796.182H189.719V806.205H203.98V796.182ZM189.719 816.228H203.98V826.251H189.719V816.228ZM203.98 836.274H189.719V846.297H203.98V836.274ZM189.719 856.32H203.98V866.343H189.719V856.32ZM203.98 876.366H189.719V886.389H203.98V876.366ZM211.11 796.182H225.37V806.205H211.11V796.182ZM225.37 816.228H211.11V826.251H225.37V816.228ZM211.11 836.274H225.37V846.297H211.11V836.274ZM225.37 856.32H211.11V866.343H225.37V856.32ZM211.11 876.366H225.37V886.389H211.11V876.366ZM246.76 796.182H232.5V806.205H246.76V796.182ZM232.5 816.228H246.76V826.251H232.5V816.228ZM246.76 836.274H232.5V846.297H246.76V836.274ZM232.5 856.32H246.76V866.343H232.5V856.32ZM246.76 876.366H232.5V886.389H246.76V876.366Z" fill="#562957"/>
<rect x="390" y="771" width="118" height="309" fill="#562957"/>
<rect x="612" y="702" width="114" height="378" fill="#843B7C"/>
<rect x="1211" y="852" width="117" height="228" fill="#843B7C"/>
<rect x="534" y="806" width="104" height="274" fill="#F8E8F9"/>
<path fill-rule="evenodd" clip-rule="evenodd" d="M534 806H638V1080H534V806ZM545.732 829.092H556.176V840.166H545.732V829.092ZM556.176 925.99H545.732V937.064H556.176V925.99ZM545.732 848.472H556.176V859.546H545.732V848.472ZM556.176 945.37H545.732V956.444H556.176V945.37ZM545.732 867.851H556.176V878.925H545.732V867.851ZM556.176 964.75H545.732V975.824H556.176V964.75ZM545.732 887.231H556.176V898.305H545.732V887.231ZM556.176 984.129H545.732V995.203H556.176V984.129ZM545.732 906.611H556.176V917.685H545.732V906.611ZM556.176 1003.51H545.732V1014.58H556.176V1003.51ZM560.093 829.092H570.537V840.166H560.093V829.092ZM570.537 925.99H560.093V937.064H570.537V925.99ZM560.093 848.472H570.537V859.546H560.093V848.472ZM570.537 945.37H560.093V956.444H570.537V945.37ZM560.093 867.851H570.537V878.925H560.093V867.851ZM570.537 964.75H560.093V975.824H570.537V964.75ZM560.093 887.231H570.537V898.305H560.093V887.231ZM570.537 984.129H560.093V995.203H570.537V984.129ZM560.093 906.611H570.537V917.685H560.093V906.611ZM570.537 1003.51H560.093V1014.58H570.537V1003.51ZM574.453 829.092H584.897V840.166H574.453V829.092ZM584.897 925.99H574.453V937.064H584.897V925.99ZM574.453 848.472H584.897V859.546H574.453V848.472ZM584.897 945.37H574.453V956.444H584.897V945.37ZM574.453 867.851H584.897V878.925H574.453V867.851ZM584.897 964.75H574.453V975.824H584.897V964.75ZM574.453 887.231H584.897V898.305H574.453V887.231ZM584.897 984.129H574.453V995.203H584.897V984.129ZM574.453 906.611H584.897V917.685H574.453V906.611ZM584.897 1003.51H574.453V1014.58H584.897V1003.51ZM588.814 829.092H599.258V840.166H588.814V829.092ZM599.258 925.99H588.814V937.064H599.258V925.99ZM588.814 848.472H599.258V859.546H588.814V848.472ZM599.258 945.37H588.814V956.444H599.258V945.37ZM588.814 867.851H599.258V878.925H588.814V867.851ZM599.258 964.75H588.814V975.824H599.258V964.75ZM588.814 887.231H599.258V898.305H588.814V887.231ZM599.258 984.129H588.814V995.203H599.258V984.129ZM588.814 906.611H599.258V917.685H588.814V906.611ZM599.258 1003.51H588.814V1014.58H599.258V1003.51ZM603.174 829.092H613.618V840.166H603.174V829.092ZM613.618 925.99H603.174V937.064H613.618V925.99ZM603.174 848.472H613.618V859.546H603.174V848.472ZM613.618 945.37H603.174V956.444H613.618V945.37ZM603.174 867.851H613.618V878.925H603.174V867.851ZM613.618 964.75H603.174V975.824H613.618V964.75ZM603.174 887.231H613.618V898.305H603.174V887.231ZM613.618 984.129H603.174V995.203H613.618V984.129ZM603.174 906.611H613.618V917.685H603.174V906.611ZM613.618 1003.51H603.174V1014.58H613.618V1003.51ZM617.535 829.092H627.979V840.166H617.535V829.092ZM627.979 925.99H617.535V937.064H627.979V925.99ZM617.535 848.472H627.979V859.546H617.535V848.472ZM627.979 945.37H617.535V956.444H627.979V945.37ZM617.535 867.851H627.979V878.925H617.535V867.851ZM627.979 964.75H617.535V975.824H627.979V964.75ZM617.535 887.231H627.979V898.305H617.535V887.231ZM627.979 984.129H617.535V995.203H627.979V984.129ZM617.535 906.611H627.979V917.685H617.535V906.611ZM627.979 1003.51H617.535V1014.58H627.979V1003.51Z" fill="#562957"/>
<rect x="696" y="739" width="131" height="341" fill="#F8E8F9"/>
<path fill-rule="evenodd" clip-rule="evenodd" d="M696 739H827V1080H696V739ZM706.019 760H737.012V778.463H706.019V760ZM737.012 902.315H706.019V920.778H737.012V902.315ZM706.019 788.463H737.012V806.926H706.019V788.463ZM737.012 930.778H706.019V949.241H737.012V930.778ZM706.019 816.926H737.012V835.389H706.019V816.926ZM737.012 959.241H706.019V977.704H737.012V959.241ZM706.019 845.389H737.012V863.852H706.019V845.389ZM737.012 987.704H706.019V1006.17H737.012V987.704ZM706.019 873.852H737.012V892.315H706.019V873.852ZM737.012 1016.17H706.019V1034.63H737.012V1016.17ZM745.012 760H776.006V778.463H745.012V760ZM776.006 902.315H745.012V920.778H776.006V902.315ZM745.012 788.463H776.006V806.926H745.012V788.463ZM776.006 930.778H745.012V949.241H776.006V930.778ZM745.012 816.926H776.006V835.389H745.012V816.926ZM776.006 959.241H745.012V977.704H776.006V959.241ZM745.012 845.389H776.006V863.852H745.012V845.389ZM776.006 987.704H745.012V1006.17H776.006V987.704ZM745.012 873.852H776.006V892.315H745.012V873.852ZM776.006 1016.17H745.012V1034.63H776.006V1016.17ZM784.006 760H815V778.463H784.006V760ZM815 902.315H784.006V920.778H815V902.315ZM784.006 788.463H815V806.926H784.006V788.463ZM815 930.778H784.006V949.241H815V930.778ZM784.006 816.926H815V835.389H784.006V816.926ZM815 959.241H784.006V977.704H815V959.241ZM784.006 845.389H815V863.852H784.006V845.389ZM815 987.704H784.006V1006.17H815V987.704ZM784.006 873.852H815V892.315H784.006V873.852ZM815 1016.17H784.006V1034.63H815V1016.17Z" fill="#562957"/>
<rect width="87" height="240" transform="matrix(-1 0 0 1 1015 840)" fill="#843B7C"/>
<path fill-rule="evenodd" clip-rule="evenodd" d="M1004.07 837V823H1012V837H1004.07ZM1015 840V820H928V840H1015ZM991.643 837H1001.07V823H991.643V837ZM988.643 837H979.214V823H988.643V837ZM976.214 823V837H966.786V823H976.214ZM963.786 823V837H954.357V823H963.786ZM951.357 823V837H941.929V823H951.357ZM938.929 823V837H931V823H938.929Z" fill="#843B7C"/>
<rect width="129" height="327" transform="matrix(-1 0 0 1 1141 753)" fill="#F8E8F9"/>
<path fill-rule="evenodd" clip-rule="evenodd" d="M1141 753H1012V1080H1141V753ZM1126.84 777.648H1105.32V790.211H1126.84V777.648ZM1105.32 885.592H1126.84V898.156H1105.32V885.592ZM1126.84 799.236H1105.32V811.8H1126.84V799.236ZM1105.32 907.181H1126.84V919.745H1105.32V907.181ZM1126.84 820.825H1105.32V833.389H1126.84V820.825ZM1105.32 928.77H1126.84V941.334H1105.32V928.77ZM1126.84 842.414H1105.32V854.978H1126.84V842.414ZM1105.32 950.359H1126.84V962.923H1105.32V950.359ZM1126.84 864.003H1105.32V876.567H1126.84V864.003ZM1105.32 971.948H1126.84V984.512H1105.32V971.948ZM1099.94 777.648H1078.42V790.211H1099.94V777.648ZM1078.42 885.592H1099.94V898.156H1078.42V885.592ZM1099.94 799.236H1078.42V811.8H1099.94V799.236ZM1078.42 907.181H1099.94V919.745H1078.42V907.181ZM1099.94 820.825H1078.42V833.389H1099.94V820.825ZM1078.42 928.77H1099.94V941.334H1078.42V928.77ZM1099.94 842.414H1078.42V854.978H1099.94V842.414ZM1078.42 950.359H1099.94V962.923H1078.42V950.359ZM1099.94 864.003H1078.42V876.567H1099.94V864.003ZM1078.42 971.948H1099.94V984.512H1078.42V971.948ZM1073.04 777.648H1051.52V790.211H1073.04V777.648ZM1051.52 885.592H1073.04V898.156H1051.52V885.592ZM1073.04 799.236H1051.52V811.8H1073.04V799.236ZM1051.52 907.181H1073.04V919.745H1051.52V907.181ZM1073.04 820.825H1051.52V833.389H1073.04V820.825ZM1051.52 928.77H1073.04V941.334H1051.52V928.77ZM1073.04 842.414H1051.52V854.978H1073.04V842.414ZM1051.52 950.359H1073.04V962.923H1051.52V950.359ZM1073.04 864.003H1051.52V876.567H1073.04V864.003ZM1051.52 971.948H1073.04V984.512H1051.52V971.948ZM1046.14 777.648H1024.62V790.211H1046.14V777.648ZM1024.62 885.592H1046.14V898.156H1024.62V885.592ZM1046.14 799.236H1024.62V811.8H1046.14V799.236ZM1024.62 907.181H1046.14V919.745H1024.62V907.181ZM1046.14 820.825H1024.62V833.389H1046.14V820.825ZM1024.62 928.77H1046.14V941.334H1024.62V928.77ZM1046.14 842.414H1024.62V854.978H1046.14V842.414ZM1024.62 950.359H1046.14V962.923H1024.62V950.359ZM1046.14 864.003H1024.62V876.567H1046.14V864.003ZM1024.62 971.948H1046.14V984.512H1024.62V971.948Z" fill="#562957"/>
<rect width="130" height="300" transform="matrix(-1 0 0 1 1372 780)" fill="#F8E8F9"/>
<path fill-rule="evenodd" clip-rule="evenodd" d="M1372 780H1242V1080H1372V780ZM1360 797H1345.61V813.637H1360V797ZM1345.61 940.187H1360V956.824H1345.61V940.187ZM1360 825.637H1345.61V842.275H1360V825.637ZM1345.61 968.824H1360V985.462H1345.61V968.824ZM1360 854.275H1345.61V870.912H1360V854.275ZM1345.61 997.462H1360V1014.1H1345.61V997.462ZM1360 882.912H1345.61V899.55H1360V882.912ZM1345.61 1026.1H1360V1042.74H1345.61V1026.1ZM1360 911.55H1345.61V928.187H1360V911.55ZM1345.61 1054.74H1360V1071.37H1345.61V1054.74ZM1337.35 797H1322.96V813.637H1337.35V797ZM1322.96 940.187H1337.35V956.824H1322.96V940.187ZM1337.35 825.637H1322.96V842.275H1337.35V825.637ZM1322.96 968.824H1337.35V985.462H1322.96V968.824ZM1337.35 854.275H1322.96V870.912H1337.35V854.275ZM1322.96 997.462H1337.35V1014.1H1322.96V997.462ZM1337.35 882.912H1322.96V899.55H1337.35V882.912ZM1322.96 1026.1H1337.35V1042.74H1322.96V1026.1ZM1337.35 911.55H1322.96V928.187H1337.35V911.55ZM1322.96 1054.74H1337.35V1071.37H1322.96V1054.74ZM1314.69 797H1300.31V813.637H1314.69V797ZM1300.31 940.187H1314.69V956.824H1300.31V940.187ZM1314.69 825.637H1300.31V842.275H1314.69V825.637ZM1300.31 968.824H1314.69V985.462H1300.31V968.824ZM1314.69 854.275H1300.31V870.912H1314.69V854.275ZM1300.31 997.462H1314.69V1014.1H1300.31V997.462ZM1314.69 882.912H1300.31V899.55H1314.69V882.912ZM1300.31 1026.1H1314.69V1042.74H1300.31V1026.1ZM1314.69 911.55H1300.31V928.187H1314.69V911.55ZM1300.31 1054.74H1314.69V1071.37H1300.31V1054.74ZM1292.04 797H1277.65V813.637H1292.04V797ZM1277.65 940.187H1292.04V956.824H1277.65V940.187ZM1292.04 825.637H1277.65V842.275H1292.04V825.637ZM1277.65 968.824H1292.04V985.462H1277.65V968.824ZM1292.04 854.275H1277.65V870.912H1292.04V854.275ZM1277.65 997.462H1292.04V1014.1H1277.65V997.462ZM1292.04 882.912H1277.65V899.55H1292.04V882.912ZM1277.65 1026.1H1292.04V1042.74H1277.65V1026.1ZM1292.04 911.55H1277.65V928.187H1292.04V911.55ZM1277.65 1054.74H1292.04V1071.37H1277.65V1054.74ZM1269.39 797H1255V813.637H1269.39V797ZM1255 940.187H1269.39V956.824H1255V940.187ZM1269.39 825.637H1255V842.275H1269.39V825.637ZM1255 968.824H1269.39V985.462H1255V968.824ZM1269.39 854.275H1255V870.912H1269.39V854.275ZM1255 997.462H1269.39V1014.1H1255V997.462ZM1269.39 882.912H1255V899.55H1269.39V882.912ZM1255 1026.1H1269.39V1042.74H1255V1026.1ZM1269.39 911.55H1255V928.187H1269.39V911.55ZM1255 1054.74H1269.39V1071.37H1255V1054.74Z" fill="#562957"/>
<rect width="104" height="309" transform="matrix(-1 0 0 1 1665 771)" fill="#843B7C"/>
<path fill-rule="evenodd" clip-rule="evenodd" d="M1575.5 768V754H1585.5V768H1575.5ZM1665 771V751H1561V771H1665ZM1564 768H1572.5V754H1564V768ZM1662 754V768H1653.5V754H1662ZM1650.5 754V768H1640.5V754H1650.5ZM1637.5 754V768H1627.5V754H1637.5ZM1624.5 754V768H1614.5V754H1624.5ZM1611.5 754V768H1601.5V754H1611.5ZM1598.5 754V768H1588.5V754H1598.5Z" fill="#843B7C"/>
<rect x="1431" y="654" width="162" height="426" fill="#F8E8F9"/>
<path fill-rule="evenodd" clip-rule="evenodd" d="M1431 654H1593V1080H1431V654ZM1448.91 680.635H1476.07V694.367H1448.91V680.635ZM1476.07 798.618H1448.91V812.35H1476.07V798.618ZM1448.91 704.231H1476.07V717.963H1448.91V704.231ZM1476.07 822.215H1448.91V835.947H1476.07V822.215ZM1448.91 727.828H1476.07V741.56H1448.91V727.828ZM1476.07 845.811H1448.91V859.543H1476.07V845.811ZM1448.91 751.425H1476.07V765.157H1448.91V751.425ZM1476.07 869.408H1448.91V883.14H1476.07V869.408ZM1448.91 775.021H1476.07V788.753H1448.91V775.021ZM1476.07 893.005H1448.91V906.737H1476.07V893.005ZM1482.86 680.635H1510.01V694.367H1482.86V680.635ZM1510.01 798.618H1482.86V812.35H1510.01V798.618ZM1482.86 704.231H1510.01V717.963H1482.86V704.231ZM1510.01 822.215H1482.86V835.947H1510.01V822.215ZM1482.86 727.828H1510.01V741.56H1482.86V727.828ZM1510.01 845.811H1482.86V859.543H1510.01V845.811ZM1482.86 751.425H1510.01V765.157H1482.86V751.425ZM1510.01 869.408H1482.86V883.14H1510.01V869.408ZM1482.86 775.021H1510.01V788.753H1482.86V775.021ZM1510.01 893.005H1482.86V906.737H1510.01V893.005ZM1516.8 680.635H1543.96V694.367H1516.8V680.635ZM1543.96 798.618H1516.8V812.35H1543.96V798.618ZM1516.8 704.231H1543.96V717.963H1516.8V704.231ZM1543.96 822.215H1516.8V835.947H1543.96V822.215ZM1516.8 727.828H1543.96V741.56H1516.8V727.828ZM1543.96 845.811H1516.8V859.543H1543.96V845.811ZM1516.8 751.425H1543.96V765.157H1516.8V751.425ZM1543.96 869.408H1516.8V883.14H1543.96V869.408ZM1516.8 775.021H1543.96V788.753H1516.8V775.021ZM1543.96 893.005H1516.8V906.737H1543.96V893.005ZM1550.75 680.635H1577.9V694.367H1550.75V680.635ZM1577.9 798.618H1550.75V812.35H1577.9V798.618ZM1550.75 704.231H1577.9V717.963H1550.75V704.231ZM1577.9 822.215H1550.75V835.947H1577.9V822.215ZM1550.75 727.828H1577.9V741.56H1550.75V727.828ZM1577.9 845.811H1550.75V859.543H1577.9V845.811ZM1550.75 751.425H1577.9V765.157H1550.75V751.425ZM1577.9 869.408H1550.75V883.14H1577.9V869.408ZM1550.75 775.021H1577.9V788.753H1550.75V775.021ZM1577.9 893.005H1550.75V906.737H1577.9V893.005Z" fill="#562957"/>
<rect width="104" height="190" transform="matrix(-1 0 0 1 1760 890)" fill="#F8E8F9"/>
<path fill-rule="evenodd" clip-rule="evenodd" d="M1760 890H1656V1080H1760V890ZM1752.17 901.35H1741.72V911.381H1752.17V901.35ZM1741.72 921.411H1752.17V931.442H1741.72V921.411ZM1752.17 941.472H1741.72V951.503H1752.17V941.472ZM1741.72 961.534H1752.17V971.564H1741.72V961.534ZM1752.17 981.595H1741.72V991.625H1752.17V981.595ZM1726.06 901.35H1736.5V911.381H1726.06V901.35ZM1736.5 921.411H1726.06V931.442H1736.5V921.411ZM1726.06 941.472H1736.5V951.503H1726.06V941.472ZM1736.5 961.534H1726.06V971.564H1736.5V961.534ZM1726.06 981.595H1736.5V991.625H1726.06V981.595ZM1720.83 901.35H1710.39V911.381H1720.83V901.35ZM1710.39 921.411H1720.83V931.442H1710.39V921.411ZM1720.83 941.472H1710.39V951.503H1720.83V941.472ZM1710.39 961.534H1720.83V971.564H1710.39V961.534ZM1720.83 981.595H1710.39V991.625H1720.83V981.595ZM1694.72 901.35H1705.17V911.381H1694.72V901.35ZM1705.17 921.411H1694.72V931.442H1705.17V921.411ZM1694.72 941.472H1705.17V951.503H1694.72V941.472ZM1705.17 961.534H1694.72V971.564H1705.17V961.534ZM1694.72 981.595H1705.17V991.625H1694.72V981.595ZM1689.5 901.35H1679.06V911.381H1689.5V901.35ZM1679.06 921.411H1689.5V931.442H1679.06V921.411ZM1689.5 941.472H1679.06V951.503H1689.5V941.472ZM1679.06 961.534H1689.5V971.564H1679.06V961.534ZM1689.5 981.595H1679.06V991.625H1689.5V981.595ZM1663.39 901.35H1673.84V911.381H1663.39V901.35ZM1673.84 921.411H1663.39V931.442H1673.84V921.411ZM1663.39 941.472H1673.84V951.503H1663.39V941.472ZM1673.84 961.534H1663.39V971.564H1673.84V961.534ZM1663.39 981.595H1673.84V991.625H1663.39V981.595ZM1752.17 1001.45H1741.72V1011.49H1752.17V1001.45ZM1741.72 1021.52H1752.17V1031.55H1741.72V1021.52ZM1752.17 1041.58H1741.72V1051.61H1752.17V1041.58ZM1741.72 1061.64H1752.17V1071.67H1741.72V1061.64ZM1726.06 1001.45H1736.5V1011.49H1726.06V1001.45ZM1736.5 1021.52H1726.06V1031.55H1736.5V1021.52ZM1726.06 1041.58H1736.5V1051.61H1726.06V1041.58ZM1736.5 1061.64H1726.06V1071.67H1736.5V1061.64ZM1720.83 1001.45H1710.39V1011.49H1720.83V1001.45ZM1710.39 1021.52H1720.83V1031.55H1710.39V1021.52ZM1720.83 1041.58H1710.39V1051.61H1720.83V1041.58ZM1710.39 1061.64H1720.83V1071.67H1710.39V1061.64ZM1694.72 1001.45H1705.17V1011.49H1694.72V1001.45ZM1705.17 1021.52H1694.72V1031.55H1705.17V1021.52ZM1694.72 1041.58H1705.17V1051.61H1694.72V1041.58ZM1705.17 1061.64H1694.72V1071.67H1705.17V1061.64ZM1689.5 1001.45H1679.06V1011.49H1689.5V1001.45ZM1679.06 1021.52H1689.5V1031.55H1679.06V1021.52ZM1689.5 1041.58H1679.06V1051.61H1689.5V1041.58ZM1679.06 1061.64H1689.5V1071.67H1679.06V1061.64ZM1663.39 1001.45H1673.84V1011.49H1663.39V1001.45ZM1673.84 1021.52H1663.39V1031.55H1673.84V1021.52ZM1663.39 1041.58H1673.84V1051.61H1663.39V1041.58ZM1673.84 1061.64H1663.39V1071.67H1673.84V1061.64Z" fill="#562957"/>
<rect x="1825" y="794" width="110" height="286" fill="#562957"/>
</g>
<defs>
<clipPath id="clip0">
<rect width="1920" height="1080" fill="white" transform="matrix(-1 0 0 1 1920 0)"/>
</clipPath>
</defs>
</svg>
