<svg width="1920" height="1080" viewBox="0 0 1920 1080" fill="none" xmlns="http://www.w3.org/2000/svg">
<g clip-path="url(#clip0)">
<rect width="77" height="480" transform="matrix(-1 0 0 1 1920 600)" fill="#E46584"/>
<rect width="92" height="369" transform="matrix(-1 0 0 1 1530 711)" fill="#E46584"/>
<rect x="1077" y="704" width="114" height="376" fill="#E46584"/>
<rect x="779" y="623" width="85" height="457" fill="#E46584"/>
<rect x="574" y="680" width="73" height="400" fill="#E46584"/>
<rect x="131" y="644" width="98" height="436" fill="#E46584"/>
<rect width="120" height="449" transform="matrix(-1 0 0 1 1761 631)" fill="#DD5677"/>
<path fill-rule="evenodd" clip-rule="evenodd" d="M1751.09 629V616H1759V629H1751.09ZM1761 631V614H1641V631H1761ZM1740.18 629H1749.09V616H1740.18V629ZM1738.18 629H1729.27V616H1738.18V629ZM1727.27 616V629H1718.36V616H1727.27ZM1716.36 616V629H1707.45V616H1716.36ZM1705.45 616V629H1696.55V616H1705.45ZM1694.55 616V629H1685.64V616H1694.55ZM1683.64 616V629H1674.73V616H1683.64ZM1672.73 616V629H1663.82V616H1672.73ZM1661.82 616V629H1652.91V616H1661.82ZM1650.91 616V629H1643V616H1650.91Z" fill="#DD5677"/>
<rect width="104" height="586" transform="matrix(-1 0 0 1 1852 494)" fill="#FFB9CA"/>
<path fill-rule="evenodd" clip-rule="evenodd" d="M1852 494H1748V1080H1852V494ZM1844.27 513.153H1833.83V523.176H1844.27V513.153ZM1833.83 533.199H1844.27V543.222H1833.83V533.199ZM1844.27 553.245H1833.83V563.268H1844.27V553.245ZM1833.83 573.291H1844.27V583.314H1833.83V573.291ZM1844.27 593.337H1833.83V603.36H1844.27V593.337ZM1818.16 513.153H1828.61V523.176H1818.16V513.153ZM1828.61 533.199H1818.16V543.222H1828.61V533.199ZM1818.16 553.245H1828.61V563.268H1818.16V553.245ZM1828.61 573.291H1818.16V583.314H1828.61V573.291ZM1818.16 593.337H1828.61V603.36H1818.16V593.337ZM1812.94 513.153H1802.5V523.176H1812.94V513.153ZM1802.5 533.199H1812.94V543.222H1802.5V533.199ZM1812.94 553.245H1802.5V563.268H1812.94V553.245ZM1802.5 573.291H1812.94V583.314H1802.5V573.291ZM1812.94 593.337H1802.5V603.36H1812.94V593.337ZM1786.83 513.153H1797.28V523.176H1786.83V513.153ZM1797.28 533.199H1786.83V543.222H1797.28V533.199ZM1786.83 553.245H1797.28V563.268H1786.83V553.245ZM1797.28 573.291H1786.83V583.314H1797.28V573.291ZM1786.83 593.337H1797.28V603.36H1786.83V593.337ZM1781.61 513.153H1771.17V523.176H1781.61V513.153ZM1771.17 533.199H1781.61V543.222H1771.17V533.199ZM1781.61 553.245H1771.17V563.268H1781.61V553.245ZM1771.17 573.291H1781.61V583.314H1771.17V573.291ZM1781.61 593.337H1771.17V603.36H1781.61V593.337ZM1755.5 513.153H1765.94V523.176H1755.5V513.153ZM1765.94 533.199H1755.5V543.222H1765.94V533.199ZM1755.5 553.245H1765.94V563.268H1755.5V553.245ZM1765.94 573.291H1755.5V583.314H1765.94V573.291ZM1755.5 593.337H1765.94V603.36H1755.5V593.337ZM1844.27 613.182H1833.83V623.205H1844.27V613.182ZM1833.83 633.228H1844.27V643.251H1833.83V633.228ZM1844.27 653.274H1833.83V663.297H1844.27V653.274ZM1833.83 673.32H1844.27V683.343H1833.83V673.32ZM1844.27 693.366H1833.83V703.389H1844.27V693.366ZM1818.16 613.182H1828.61V623.205H1818.16V613.182ZM1828.61 633.228H1818.16V643.251H1828.61V633.228ZM1818.16 653.274H1828.61V663.297H1818.16V653.274ZM1828.61 673.32H1818.16V683.343H1828.61V673.32ZM1818.16 693.366H1828.61V703.389H1818.16V693.366ZM1812.94 613.182H1802.5V623.205H1812.94V613.182ZM1802.5 633.228H1812.94V643.251H1802.5V633.228ZM1812.94 653.274H1802.5V663.297H1812.94V653.274ZM1802.5 673.32H1812.94V683.343H1802.5V673.32ZM1812.94 693.366H1802.5V703.389H1812.94V693.366ZM1786.83 613.182H1797.28V623.205H1786.83V613.182ZM1797.28 633.228H1786.83V643.251H1797.28V633.228ZM1786.83 653.274H1797.28V663.297H1786.83V653.274ZM1797.28 673.32H1786.83V683.343H1797.28V673.32ZM1786.83 693.366H1797.28V703.389H1786.83V693.366ZM1781.61 613.182H1771.17V623.205H1781.61V613.182ZM1771.17 633.228H1781.61V643.251H1771.17V633.228ZM1781.61 653.274H1771.17V663.297H1781.61V653.274ZM1771.17 673.32H1781.61V683.343H1771.17V673.32ZM1781.61 693.366H1771.17V703.389H1781.61V693.366ZM1755.5 613.182H1765.94V623.205H1755.5V613.182ZM1765.94 633.228H1755.5V643.251H1765.94V633.228ZM1755.5 653.274H1765.94V663.297H1755.5V653.274ZM1765.94 673.32H1755.5V683.343H1765.94V673.32ZM1755.5 693.366H1765.94V703.389H1755.5V693.366Z" fill="#D04B6B"/>
<rect width="95" height="531" transform="matrix(-1 0 0 1 1618 549)" fill="#D04B6B"/>
<rect width="114" height="561" transform="matrix(-1 0 0 1 1393 519)" fill="#DD5677"/>
<rect width="104" height="457" transform="matrix(-1 0 0 1 1471 623)" fill="#FFB9CA"/>
<path fill-rule="evenodd" clip-rule="evenodd" d="M1471 623H1367V1080H1471V623ZM1459.27 646.092H1448.82V657.166H1459.27V646.092ZM1448.82 742.99H1459.27V754.064H1448.82V742.99ZM1459.27 665.472H1448.82V676.546H1459.27V665.472ZM1448.82 762.37H1459.27V773.444H1448.82V762.37ZM1459.27 684.851H1448.82V695.925H1459.27V684.851ZM1448.82 781.75H1459.27V792.824H1448.82V781.75ZM1459.27 704.231H1448.82V715.305H1459.27V704.231ZM1448.82 801.129H1459.27V812.203H1448.82V801.129ZM1459.27 723.611H1448.82V734.685H1459.27V723.611ZM1448.82 820.509H1459.27V831.583H1448.82V820.509ZM1444.91 646.092H1434.46V657.166H1444.91V646.092ZM1434.46 742.99H1444.91V754.064H1434.46V742.99ZM1444.91 665.472H1434.46V676.546H1444.91V665.472ZM1434.46 762.37H1444.91V773.444H1434.46V762.37ZM1444.91 684.851H1434.46V695.925H1444.91V684.851ZM1434.46 781.75H1444.91V792.824H1434.46V781.75ZM1444.91 704.231H1434.46V715.305H1444.91V704.231ZM1434.46 801.129H1444.91V812.203H1434.46V801.129ZM1444.91 723.611H1434.46V734.685H1444.91V723.611ZM1434.46 820.509H1444.91V831.583H1434.46V820.509ZM1430.55 646.092H1420.1V657.166H1430.55V646.092ZM1420.1 742.99H1430.55V754.064H1420.1V742.99ZM1430.55 665.472H1420.1V676.546H1430.55V665.472ZM1420.1 762.37H1430.55V773.444H1420.1V762.37ZM1430.55 684.851H1420.1V695.925H1430.55V684.851ZM1420.1 781.75H1430.55V792.824H1420.1V781.75ZM1430.55 704.231H1420.1V715.305H1430.55V704.231ZM1420.1 801.129H1430.55V812.203H1420.1V801.129ZM1430.55 723.611H1420.1V734.685H1430.55V723.611ZM1420.1 820.509H1430.55V831.583H1420.1V820.509ZM1416.19 646.092H1405.74V657.166H1416.19V646.092ZM1405.74 742.99H1416.19V754.064H1405.74V742.99ZM1416.19 665.472H1405.74V676.546H1416.19V665.472ZM1405.74 762.37H1416.19V773.444H1405.74V762.37ZM1416.19 684.851H1405.74V695.925H1416.19V684.851ZM1405.74 781.75H1416.19V792.824H1405.74V781.75ZM1416.19 704.231H1405.74V715.305H1416.19V704.231ZM1405.74 801.129H1416.19V812.203H1405.74V801.129ZM1416.19 723.611H1405.74V734.685H1416.19V723.611ZM1405.74 820.509H1416.19V831.583H1405.74V820.509ZM1401.83 646.092H1391.38V657.166H1401.83V646.092ZM1391.38 742.99H1401.83V754.064H1391.38V742.99ZM1401.83 665.472H1391.38V676.546H1401.83V665.472ZM1391.38 762.37H1401.83V773.444H1391.38V762.37ZM1401.83 684.851H1391.38V695.925H1401.83V684.851ZM1391.38 781.75H1401.83V792.824H1391.38V781.75ZM1401.83 704.231H1391.38V715.305H1401.83V704.231ZM1391.38 801.129H1401.83V812.203H1391.38V801.129ZM1401.83 723.611H1391.38V734.685H1401.83V723.611ZM1391.38 820.509H1401.83V831.583H1391.38V820.509ZM1387.46 646.092H1377.02V657.166H1387.46V646.092ZM1377.02 742.99H1387.46V754.064H1377.02V742.99ZM1387.46 665.472H1377.02V676.546H1387.46V665.472ZM1377.02 762.37H1387.46V773.444H1377.02V762.37ZM1387.46 684.851H1377.02V695.925H1387.46V684.851ZM1377.02 781.75H1387.46V792.824H1377.02V781.75ZM1387.46 704.231H1377.02V715.305H1387.46V704.231ZM1377.02 801.129H1387.46V812.203H1377.02V801.129ZM1387.46 723.611H1377.02V734.685H1387.46V723.611ZM1377.02 820.509H1387.46V831.583H1377.02V820.509Z" fill="#D04B6B"/>
<rect width="131" height="524" transform="matrix(-1 0 0 1 1309 556)" fill="#FFB9CA"/>
<path fill-rule="evenodd" clip-rule="evenodd" d="M1309 556H1178V1080H1309V556ZM1298.98 577H1267.99V595.463H1298.98V577ZM1267.99 719.315H1298.98V737.778H1267.99V719.315ZM1298.98 605.463H1267.99V623.926H1298.98V605.463ZM1267.99 747.778H1298.98V766.241H1267.99V747.778ZM1298.98 633.926H1267.99V652.389H1298.98V633.926ZM1267.99 776.241H1298.98V794.704H1267.99V776.241ZM1298.98 662.389H1267.99V680.852H1298.98V662.389ZM1267.99 804.704H1298.98V823.167H1267.99V804.704ZM1298.98 690.852H1267.99V709.315H1298.98V690.852ZM1267.99 833.167H1298.98V851.63H1267.99V833.167ZM1259.99 577H1228.99V595.463H1259.99V577ZM1228.99 719.315H1259.99V737.778H1228.99V719.315ZM1259.99 605.463H1228.99V623.926H1259.99V605.463ZM1228.99 747.778H1259.99V766.241H1228.99V747.778ZM1259.99 633.926H1228.99V652.389H1259.99V633.926ZM1228.99 776.241H1259.99V794.704H1228.99V776.241ZM1259.99 662.389H1228.99V680.852H1259.99V662.389ZM1228.99 804.704H1259.99V823.167H1228.99V804.704ZM1259.99 690.852H1228.99V709.315H1259.99V690.852ZM1228.99 833.167H1259.99V851.63H1228.99V833.167ZM1220.99 577H1190V595.463H1220.99V577ZM1190 719.315H1220.99V737.778H1190V719.315ZM1220.99 605.463H1190V623.926H1220.99V605.463ZM1190 747.778H1220.99V766.241H1190V747.778ZM1220.99 633.926H1190V652.389H1220.99V633.926ZM1190 776.241H1220.99V794.704H1190V776.241ZM1220.99 662.389H1190V680.852H1220.99V662.389ZM1190 804.704H1220.99V823.167H1190V804.704ZM1220.99 690.852H1190V709.315H1220.99V690.852ZM1190 833.167H1220.99V851.63H1190V833.167Z" fill="#D04B6B"/>
<rect x="990" y="656" width="87" height="424" fill="#DD5677"/>
<path fill-rule="evenodd" clip-rule="evenodd" d="M1067.12 654V641H1075V654H1067.12ZM1077 656V639H990V656H1077ZM1056.25 654H1065.12V641H1056.25V654ZM1054.25 654H1045.38V641H1054.25V654ZM1043.38 641V654H1034.5V641H1043.38ZM1032.5 641V654H1023.62V641H1032.5ZM1021.62 641V654H1012.75V641H1021.62ZM1010.75 641V654H1001.88V641H1010.75ZM999.875 641V654H992V641H999.875Z" fill="#DD5677"/>
<rect x="864" y="570" width="129" height="510" fill="#FFB9CA"/>
<path fill-rule="evenodd" clip-rule="evenodd" d="M864 570H993V1080H864V570ZM878.161 594.648H899.68V607.211H878.161V594.648ZM899.68 702.592H878.161V715.156H899.68V702.592ZM878.161 616.236H899.68V628.8H878.161V616.236ZM899.68 724.181H878.161V736.745H899.68V724.181ZM878.161 637.825H899.68V650.389H878.161V637.825ZM899.68 745.77H878.161V758.334H899.68V745.77ZM878.161 659.414H899.68V671.978H878.161V659.414ZM899.68 767.359H878.161V779.923H899.68V767.359ZM878.161 681.003H899.68V693.567H878.161V681.003ZM899.68 788.948H878.161V801.512H899.68V788.948ZM905.059 594.648H926.578V607.211H905.059V594.648ZM926.578 702.592H905.059V715.156H926.578V702.592ZM905.059 616.236H926.578V628.8H905.059V616.236ZM926.578 724.181H905.059V736.745H926.578V724.181ZM905.059 637.825H926.578V650.389H905.059V637.825ZM926.578 745.77H905.059V758.334H926.578V745.77ZM905.059 659.414H926.578V671.978H905.059V659.414ZM926.578 767.359H905.059V779.923H926.578V767.359ZM905.059 681.003H926.578V693.567H905.059V681.003ZM926.578 788.948H905.059V801.512H926.578V788.948ZM931.958 594.648H953.477V607.211H931.958V594.648ZM953.477 702.592H931.958V715.156H953.477V702.592ZM931.958 616.236H953.477V628.8H931.958V616.236ZM953.477 724.181H931.958V736.745H953.477V724.181ZM931.958 637.825H953.477V650.389H931.958V637.825ZM953.477 745.77H931.958V758.334H953.477V745.77ZM931.958 659.414H953.477V671.978H931.958V659.414ZM953.477 767.359H931.958V779.923H953.477V767.359ZM931.958 681.003H953.477V693.567H931.958V681.003ZM953.477 788.948H931.958V801.512H953.477V788.948ZM958.856 594.648H980.375V607.211H958.856V594.648ZM980.375 702.592H958.856V715.156H980.375V702.592ZM958.856 616.236H980.375V628.8H958.856V616.236ZM980.375 724.181H958.856V736.745H980.375V724.181ZM958.856 637.825H980.375V650.389H958.856V637.825ZM980.375 745.77H958.856V758.334H980.375V745.77ZM958.856 659.414H980.375V671.978H958.856V659.414ZM980.375 767.359H958.856V779.923H980.375V767.359ZM958.856 681.003H980.375V693.567H958.856V681.003ZM980.375 788.948H958.856V801.512H980.375V788.948Z" fill="#D04B6B"/>
<rect x="633" y="597" width="130" height="483" fill="#FFB9CA"/>
<path fill-rule="evenodd" clip-rule="evenodd" d="M633 597H763V1080H633V597ZM645 614H659.388V630.637H645V614ZM659.388 757.187H645V773.824H659.388V757.187ZM645 642.637H659.388V659.275H645V642.637ZM659.388 785.824H645V802.462H659.388V785.824ZM645 671.275H659.388V687.912H645V671.275ZM659.388 814.462H645V831.099H659.388V814.462ZM645 699.912H659.388V716.55H645V699.912ZM659.388 843.099H645V859.737H659.388V843.099ZM645 728.55H659.388V745.187H645V728.55ZM659.388 871.737H645V888.374H659.388V871.737ZM667.653 614H682.041V630.637H667.653V614ZM682.041 757.187H667.653V773.824H682.041V757.187ZM667.653 642.637H682.041V659.275H667.653V642.637ZM682.041 785.824H667.653V802.462H682.041V785.824ZM667.653 671.275H682.041V687.912H667.653V671.275ZM682.041 814.462H667.653V831.099H682.041V814.462ZM667.653 699.912H682.041V716.55H667.653V699.912ZM682.041 843.099H667.653V859.737H682.041V843.099ZM667.653 728.55H682.041V745.187H667.653V728.55ZM682.041 871.737H667.653V888.374H682.041V871.737ZM690.306 614H704.694V630.637H690.306V614ZM704.694 757.187H690.306V773.824H704.694V757.187ZM690.306 642.637H704.694V659.275H690.306V642.637ZM704.694 785.824H690.306V802.462H704.694V785.824ZM690.306 671.275H704.694V687.912H690.306V671.275ZM704.694 814.462H690.306V831.099H704.694V814.462ZM690.306 699.912H704.694V716.55H690.306V699.912ZM704.694 843.099H690.306V859.737H704.694V843.099ZM690.306 728.55H704.694V745.187H690.306V728.55ZM704.694 871.737H690.306V888.374H704.694V871.737ZM712.959 614H727.347V630.637H712.959V614ZM727.347 757.187H712.959V773.824H727.347V757.187ZM712.959 642.637H727.347V659.275H712.959V642.637ZM727.347 785.824H712.959V802.462H727.347V785.824ZM712.959 671.275H727.347V687.912H712.959V671.275ZM727.347 814.462H712.959V831.099H727.347V814.462ZM712.959 699.912H727.347V716.55H712.959V699.912ZM727.347 843.099H712.959V859.737H727.347V843.099ZM712.959 728.55H727.347V745.187H712.959V728.55ZM727.347 871.737H712.959V888.374H727.347V871.737ZM735.612 614H750V630.637H735.612V614ZM750 757.187H735.612V773.824H750V757.187ZM735.612 642.637H750V659.275H735.612V642.637ZM750 785.824H735.612V802.462H750V785.824ZM735.612 671.275H750V687.912H735.612V671.275ZM750 814.462H735.612V831.099H750V814.462ZM735.612 699.912H750V716.55H735.612V699.912ZM750 843.099H735.612V859.737H750V843.099ZM735.612 728.55H750V745.187H735.612V728.55ZM750 871.737H735.612V888.374H750V871.737Z" fill="#D04B6B"/>
<rect x="340" y="584" width="104" height="496" fill="#DD5677"/>
<path fill-rule="evenodd" clip-rule="evenodd" d="M424.2 582V569H432.6V582H424.2ZM444 584V567H340V584H444ZM413.8 582H422.2V569H413.8V582ZM411.8 582H403.4V569H411.8V582ZM401.4 569V582H393V569H401.4ZM391 569V582H382.6V569H391ZM380.6 569V582H372.2V569H380.6ZM370.2 569V582H361.8V569H370.2ZM359.8 569V582H351.4V569H359.8ZM349.4 569V582H342V569H349.4ZM442 569V582H434.6V569H442Z" fill="#DD5677"/>
<rect width="162.429" height="609" transform="matrix(-1 0 0 1 574 471)" fill="#FFB9CA"/>
<path fill-rule="evenodd" clip-rule="evenodd" d="M574 471H411.571V1080H574V471ZM556.085 497.635H528.93V511.367H556.085V497.635ZM528.93 615.618H556.085V629.35H528.93V615.618ZM556.085 521.231H528.93V534.963H556.085V521.231ZM528.93 639.215H556.085V652.947H528.93V639.215ZM556.085 544.828H528.93V558.56H556.085V544.828ZM528.93 662.811H556.085V676.543H528.93V662.811ZM556.085 568.425H528.93V582.157H556.085V568.425ZM528.93 686.408H556.085V700.14H528.93V686.408ZM556.085 592.021H528.93V605.753H556.085V592.021ZM528.93 710.005H556.085V723.737H528.93V710.005ZM522.141 497.635H494.986V511.367H522.141V497.635ZM494.986 615.618H522.141V629.35H494.986V615.618ZM522.141 521.231H494.986V534.963H522.141V521.231ZM494.986 639.215H522.141V652.947H494.986V639.215ZM522.141 544.828H494.986V558.56H522.141V544.828ZM494.986 662.811H522.141V676.543H494.986V662.811ZM522.141 568.425H494.986V582.157H522.141V568.425ZM494.986 686.408H522.141V700.14H494.986V686.408ZM522.141 592.021H494.986V605.753H522.141V592.021ZM494.986 710.005H522.141V723.737H494.986V710.005ZM488.197 497.635H461.042V511.367H488.197V497.635ZM461.042 615.618H488.197V629.35H461.042V615.618ZM488.197 521.231H461.042V534.963H488.197V521.231ZM461.042 639.215H488.197V652.947H461.042V639.215ZM488.197 544.828H461.042V558.56H488.197V544.828ZM461.042 662.811H488.197V676.543H461.042V662.811ZM488.197 568.425H461.042V582.157H488.197V568.425ZM461.042 686.408H488.197V700.14H461.042V686.408ZM488.197 592.021H461.042V605.753H488.197V592.021ZM461.042 710.005H488.197V723.737H461.042V710.005ZM454.253 497.635H427.098V511.367H454.253V497.635ZM427.098 615.618H454.253V629.35H427.098V615.618ZM454.253 521.231H427.098V534.963H454.253V521.231ZM427.098 639.215H454.253V652.947H427.098V639.215ZM454.253 544.828H427.098V558.56H454.253V544.828ZM427.098 662.811H454.253V676.543H427.098V662.811ZM454.253 568.425H427.098V582.157H454.253V568.425ZM427.098 686.408H454.253V700.14H427.098V686.408ZM454.253 592.021H427.098V605.753H454.253V592.021ZM427.098 710.005H454.253V723.737H427.098V710.005Z" fill="#D04B6B"/>
<rect x="245" y="707" width="104" height="373" fill="#FFB9CA"/>
<path fill-rule="evenodd" clip-rule="evenodd" d="M245 707H349V1080H245V707ZM252.833 718.35H263.277V728.381H252.833V718.35ZM263.277 738.411H252.833V748.442H263.277V738.411ZM252.833 758.472H263.277V768.503H252.833V758.472ZM263.277 778.534H252.833V788.564H263.277V778.534ZM252.833 798.595H263.277V808.625H252.833V798.595ZM278.943 718.35H268.499V728.381H278.943V718.35ZM268.499 738.411H278.943V748.442H268.499V738.411ZM278.943 758.472H268.499V768.503H278.943V758.472ZM268.499 778.534H278.943V788.564H268.499V778.534ZM278.943 798.595H268.499V808.625H278.943V798.595ZM284.165 718.35H294.609V728.381H284.165V718.35ZM294.609 738.411H284.165V748.442H294.609V738.411ZM284.165 758.472H294.609V768.503H284.165V758.472ZM294.609 778.534H284.165V788.564H294.609V778.534ZM284.165 798.595H294.609V808.625H284.165V798.595ZM310.275 718.35H299.831V728.381H310.275V718.35ZM299.831 738.411H310.275V748.442H299.831V738.411ZM310.275 758.472H299.831V768.503H310.275V758.472ZM299.831 778.534H310.275V788.564H299.831V778.534ZM310.275 798.595H299.831V808.625H310.275V798.595ZM315.497 718.35H325.941V728.381H315.497V718.35ZM325.941 738.411H315.497V748.442H325.941V738.411ZM315.497 758.472H325.941V768.503H315.497V758.472ZM325.941 778.534H315.497V788.564H325.941V778.534ZM315.497 798.595H325.941V808.625H315.497V798.595ZM341.608 718.35H331.163V728.381H341.608V718.35ZM331.163 738.411H341.608V748.442H331.163V738.411ZM341.608 758.472H331.163V768.503H341.608V758.472ZM331.163 778.534H341.608V788.564H331.163V778.534ZM341.608 798.595H331.163V808.625H341.608V798.595ZM252.833 818.455H263.277V828.486H252.833V818.455ZM263.277 838.516H252.833V848.547H263.277V838.516ZM252.833 858.577H263.277V868.608H252.833V858.577ZM263.277 878.639H252.833V888.669H263.277V878.639ZM252.833 898.7H263.277V908.73H252.833V898.7ZM278.943 818.455H268.499V828.486H278.943V818.455ZM268.499 838.516H278.943V848.547H268.499V838.516ZM278.943 858.577H268.499V868.608H278.943V858.577ZM268.499 878.639H278.943V888.669H268.499V878.639ZM278.943 898.7H268.499V908.73H278.943V898.7ZM284.165 818.455H294.609V828.486H284.165V818.455ZM294.609 838.516H284.165V848.547H294.609V838.516ZM284.165 858.577H294.609V868.608H284.165V858.577ZM294.609 878.639H284.165V888.669H294.609V878.639ZM284.165 898.7H294.609V908.73H284.165V898.7ZM310.275 818.455H299.831V828.486H310.275V818.455ZM299.831 838.516H310.275V848.547H299.831V838.516ZM310.275 858.577H299.831V868.608H310.275V858.577ZM299.831 878.639H310.275V888.669H299.831V878.639ZM310.275 898.7H299.831V908.73H310.275V898.7ZM315.497 818.455H325.941V828.486H315.497V818.455ZM325.941 838.516H315.497V848.547H325.941V838.516ZM315.497 858.577H325.941V868.608H315.497V858.577ZM325.941 878.639H315.497V888.669H325.941V878.639ZM315.497 898.7H325.941V908.73H315.497V898.7ZM341.608 818.455H331.163V828.486H341.608V818.455ZM331.163 838.516H341.608V848.547H331.163V838.516ZM341.608 858.577H331.163V868.608H341.608V858.577ZM331.163 878.639H341.608V888.669H331.163V878.639ZM341.608 898.7H331.163V908.73H341.608V898.7Z" fill="#D04B6B"/>
<rect x="-20" y="571" width="151" height="509" fill="#FFB9CA"/>
<path fill-rule="evenodd" clip-rule="evenodd" d="M-20 571H131V1080H-20V571ZM-7.32867 597H17.9159V613.61H-7.32867V597ZM17.9159 750.051H-7.32867V766.661H17.9159V750.051ZM-7.32867 627.61H17.9159V644.22H-7.32867V627.61ZM17.9159 780.661H-7.32867V797.271H17.9159V780.661ZM-7.32867 658.22H17.9159V674.831H-7.32867V658.22ZM17.9159 811.271H-7.32867V827.881H17.9159V811.271ZM-7.32867 688.831H17.9159V705.441H-7.32867V688.831ZM17.9159 841.881H-7.32867V858.492H17.9159V841.881ZM-7.32867 719.441H17.9159V736.051H-7.32867V719.441ZM17.9159 872.492H-7.32867V889.102H17.9159V872.492ZM26.3635 597H51.608V613.61H26.3635V597ZM51.608 750.051H26.3635V766.661H51.608V750.051ZM26.3635 627.61H51.608V644.22H26.3635V627.61ZM51.608 780.661H26.3635V797.271H51.608V780.661ZM26.3635 658.22H51.608V674.831H26.3635V658.22ZM51.608 811.271H26.3635V827.881H51.608V811.271ZM26.3635 688.831H51.608V705.441H26.3635V688.831ZM51.608 841.881H26.3635V858.492H51.608V841.881ZM26.3635 719.441H51.608V736.051H26.3635V719.441ZM51.608 872.492H26.3635V889.102H51.608V872.492ZM60.0556 597H85.3002V613.61H60.0556V597ZM85.3002 750.051H60.0556V766.661H85.3002V750.051ZM60.0556 627.61H85.3002V644.22H60.0556V627.61ZM85.3002 780.661H60.0556V797.271H85.3002V780.661ZM60.0556 658.22H85.3002V674.831H60.0556V658.22ZM85.3002 811.271H60.0556V827.881H85.3002V811.271ZM60.0556 688.831H85.3002V705.441H60.0556V688.831ZM85.3002 841.881H60.0556V858.492H85.3002V841.881ZM60.0556 719.441H85.3002V736.051H60.0556V719.441ZM85.3002 872.492H60.0556V889.102H85.3002V872.492ZM93.7477 597H118.992V613.61H93.7477V597ZM118.992 750.051H93.7477V766.661H118.992V750.051ZM93.7477 627.61H118.992V644.22H93.7477V627.61ZM118.992 780.661H93.7477V797.271H118.992V780.661ZM93.7477 658.22H118.992V674.831H93.7477V658.22ZM118.992 811.271H93.7477V827.881H118.992V811.271ZM93.7477 688.831H118.992V705.441H93.7477V688.831ZM118.992 841.881H93.7477V858.492H118.992V841.881ZM93.7477 719.441H118.992V736.051H93.7477V719.441ZM118.992 872.492H93.7477V889.102H118.992V872.492Z" fill="#D04B6B"/>
</g>
<defs>
<clipPath id="clip0">
<rect width="1920" height="1080" fill="white"/>
</clipPath>
</defs>
</svg>
