<svg width="1920" height="1080" viewBox="0 0 1920 1080" fill="none" xmlns="http://www.w3.org/2000/svg">
<g clip-path="url(#clip0)">
<rect x="127" y="523" width="160" height="557" fill="#F5A0A4"/>
<rect x="364" y="621" width="160" height="459" fill="#F5A0A4"/>
<rect width="140" height="517" transform="matrix(-1 0 0 1 862 563)" fill="#F5A0A4"/>
<rect width="145" height="682" transform="matrix(-1 0 0 1 1202 398)" fill="#F59FA4"/>
<rect width="160" height="487" transform="matrix(-1 0 0 1 1344 593)" fill="#F5A0A4"/>
<rect width="160" height="557" transform="matrix(-1 0 0 1 1842 523)" fill="#F5A0A4"/>
<rect x="86" y="456" width="110" height="624" fill="#F19195"/>
<path fill-rule="evenodd" clip-rule="evenodd" d="M103.833 455L103.833 442H95.6667L95.6667 455H103.833ZM86 456V441H196V456H86ZM113 455H104.833L104.833 442H113V455ZM114 455H122.167V442H114V455ZM123.167 442V455H131.333V442H123.167ZM132.333 442V455H140.5V442H132.333ZM141.5 442V455H149.667V442H141.5ZM150.667 442V455H158.833V442H150.667ZM159.833 442V455H168V442H159.833ZM169 442V455H177.167L177.167 442H169ZM178.167 442L178.167 455H186.333L186.333 442H178.167ZM187.333 442L187.333 455H195V442H187.333ZM87 442V455H94.6667L94.6667 442H87Z" fill="#F19195"/>
<rect x="-14" y="331" width="110" height="749" fill="#F9ABAF"/>
<path fill-rule="evenodd" clip-rule="evenodd" d="M-14 331H96V1080H-14V331ZM-5.72358 352.222H5.31165V363.327H-5.72358V352.222ZM5.31165 374.432H-5.72358V385.538H5.31165V374.432ZM-5.72358 396.643H5.31165V407.748H-5.72358V396.643ZM5.31165 418.854H-5.72358V429.959H5.31165V418.854ZM-5.72358 441.064H5.31165V452.17H-5.72358V441.064ZM21.8645 352.222H10.8293V363.327H21.8645V352.222ZM10.8293 374.432H21.8645V385.538H10.8293V374.432ZM21.8645 396.643H10.8293V407.748H21.8645V396.643ZM10.8293 418.854H21.8645V429.959H10.8293V418.854ZM21.8645 441.064H10.8293V452.17H21.8645V441.064ZM27.3821 352.222H38.4173V363.327H27.3821V352.222ZM38.4173 374.432H27.3821V385.538H38.4173V374.432ZM27.3821 396.643H38.4173V407.748H27.3821V396.643ZM38.4173 418.854H27.3821V429.959H38.4173V418.854ZM27.3821 441.064H38.4173V452.17H27.3821V441.064ZM54.9702 352.222H43.935V363.327H54.9702V352.222ZM43.935 374.432H54.9702V385.538H43.935V374.432ZM54.9702 396.643H43.935V407.748H54.9702V396.643ZM43.935 418.854H54.9702V429.959H43.935V418.854ZM54.9702 441.064H43.935V452.17H54.9702V441.064ZM60.4878 352.222H71.523V363.327H60.4878V352.222ZM71.523 374.432H60.4878V385.538H71.523V374.432ZM60.4878 396.643H71.523V407.748H60.4878V396.643ZM71.523 418.854H60.4878V429.959H71.523V418.854ZM60.4878 441.064H71.523V452.17H60.4878V441.064ZM88.0759 352.222H77.0406V363.327H88.0759V352.222ZM77.0406 374.432H88.0759V385.538H77.0406V374.432ZM88.0759 396.643H77.0406V407.748H88.0759V396.643ZM77.0406 418.854H88.0759V429.959H77.0406V418.854ZM88.0759 441.064H77.0406V452.17H88.0759V441.064ZM-5.72358 463.052H5.31165V474.157H-5.72358V463.052ZM5.31165 485.263H-5.72358V496.368H5.31165V485.263ZM-5.72358 507.473H5.31165V518.579H-5.72358V507.473ZM5.31165 529.684H-5.72358V540.789H5.31165V529.684ZM-5.72358 551.895H5.31165V563H-5.72358V551.895ZM21.8645 463.052H10.8293V474.157H21.8645V463.052ZM10.8293 485.263H21.8645V496.368H10.8293V485.263ZM21.8645 507.473H10.8293V518.579H21.8645V507.473ZM10.8293 529.684H21.8645V540.789H10.8293V529.684ZM21.8645 551.895H10.8293V563H21.8645V551.895ZM27.3821 463.052H38.4173V474.157H27.3821V463.052ZM38.4173 485.263H27.3821V496.368H38.4173V485.263ZM27.3821 507.473H38.4173V518.579H27.3821V507.473ZM38.4173 529.684H27.3821V540.789H38.4173V529.684ZM27.3821 551.895H38.4173V563H27.3821V551.895ZM54.9702 463.052H43.935V474.157H54.9702V463.052ZM43.935 485.263H54.9702V496.368H43.935V485.263ZM54.9702 507.473H43.935V518.579H54.9702V507.473ZM43.935 529.684H54.9702V540.789H43.935V529.684ZM54.9702 551.895H43.935V563H54.9702V551.895ZM60.4878 463.052H71.523V474.157H60.4878V463.052ZM71.523 485.263H60.4878V496.368H71.523V485.263ZM60.4878 507.473H71.523V518.579H60.4878V507.473ZM71.523 529.684H60.4878V540.789H71.523V529.684ZM60.4878 551.895H71.523V563H60.4878V551.895ZM88.0759 463.052H77.0406V474.157H88.0759V463.052ZM77.0406 485.263H88.0759V496.368H77.0406V485.263ZM88.0759 507.473H77.0406V518.579H88.0759V507.473ZM77.0406 529.684H88.0759V540.789H77.0406V529.684ZM88.0759 551.895H77.0406V563H88.0759V551.895Z" fill="#EC868B"/>
<rect x="271" y="417" width="106" height="663" fill="#EC868B"/>
<rect x="509" y="367" width="160" height="713" fill="#F19195"/>
<rect x="427" y="499" width="110" height="581" fill="#F9ABAF"/>
<path fill-rule="evenodd" clip-rule="evenodd" d="M427 499H537V1080H427V499ZM439 525H450.035V537.27H439V525ZM450.035 632.362H439V644.632H450.035V632.362ZM439 546.472H450.035V558.742H439V546.472ZM450.035 653.834H439V666.104H450.035V653.834ZM439 567.945H450.035V580.215H439V567.945ZM450.035 675.307H439V687.577H450.035V675.307ZM439 589.417H450.035V601.687H439V589.417ZM450.035 696.779H439V709.049H450.035V696.779ZM439 610.89H450.035V623.16H439V610.89ZM450.035 718.252H439V730.522H450.035V718.252ZM454.173 525H465.209V537.27H454.173V525ZM465.209 632.362H454.173V644.632H465.209V632.362ZM454.173 546.472H465.209V558.742H454.173V546.472ZM465.209 653.834H454.173V666.104H465.209V653.834ZM454.173 567.945H465.209V580.215H454.173V567.945ZM465.209 675.307H454.173V687.577H465.209V675.307ZM454.173 589.417H465.209V601.687H454.173V589.417ZM465.209 696.779H454.173V709.049H465.209V696.779ZM454.173 610.89H465.209V623.16H454.173V610.89ZM465.209 718.252H454.173V730.522H465.209V718.252ZM469.347 525H480.382V537.27H469.347V525ZM480.382 632.362H469.347V644.632H480.382V632.362ZM469.347 546.472H480.382V558.742H469.347V546.472ZM480.382 653.834H469.347V666.104H480.382V653.834ZM469.347 567.945H480.382V580.215H469.347V567.945ZM480.382 675.307H469.347V687.577H480.382V675.307ZM469.347 589.417H480.382V601.687H469.347V589.417ZM480.382 696.779H469.347V709.049H480.382V696.779ZM469.347 610.89H480.382V623.16H469.347V610.89ZM480.382 718.252H469.347V730.522H480.382V718.252ZM484.52 525H495.556V537.27H484.52V525ZM495.556 632.362H484.52V644.632H495.556V632.362ZM484.52 546.472H495.556V558.742H484.52V546.472ZM495.556 653.834H484.52V666.104H495.556V653.834ZM484.52 567.945H495.556V580.215H484.52V567.945ZM495.556 675.307H484.52V687.577H495.556V675.307ZM484.52 589.417H495.556V601.687H484.52V589.417ZM495.556 696.779H484.52V709.049H495.556V696.779ZM484.52 610.89H495.556V623.16H484.52V610.89ZM495.556 718.252H484.52V730.522H495.556V718.252ZM499.694 525H510.729V537.27H499.694V525ZM510.729 632.362H499.694V644.632H510.729V632.362ZM499.694 546.472H510.729V558.742H499.694V546.472ZM510.729 653.834H499.694V666.104H510.729V653.834ZM499.694 567.945H510.729V580.215H499.694V567.945ZM510.729 675.307H499.694V687.577H510.729V675.307ZM499.694 589.417H510.729V601.687H499.694V589.417ZM510.729 696.779H499.694V709.049H510.729V696.779ZM499.694 610.89H510.729V623.16H499.694V610.89ZM510.729 718.252H499.694V730.522H510.729V718.252ZM514.867 525H525.902V537.27H514.867V525ZM525.902 632.362H514.867V644.632H525.902V632.362ZM514.867 546.472H525.902V558.742H514.867V546.472ZM525.902 653.834H514.867V666.104H525.902V653.834ZM514.867 567.945H525.902V580.215H514.867V567.945ZM525.902 675.307H514.867V687.577H525.902V675.307ZM514.867 589.417H525.902V601.687H514.867V589.417ZM525.902 696.779H514.867V709.049H525.902V696.779ZM514.867 610.89H525.902V623.16H514.867V610.89ZM525.902 718.252H514.867V730.522H525.902V718.252Z" fill="#EC868B"/>
<rect x="612" y="441" width="136" height="639" fill="#F9ABAF"/>
<path fill-rule="evenodd" clip-rule="evenodd" d="M612 441H748V1080H612V441ZM627 468H649.737V481.92H627V468ZM649.737 587.601H627V601.522H649.737V587.601ZM627 491.92H649.737V505.841H627V491.92ZM649.737 611.522H627V625.442H649.737V611.522ZM627 515.841H649.737V529.761H627V515.841ZM649.737 635.442H627V649.362H649.737V635.442ZM627 539.761H649.737V553.681H627V539.761ZM649.737 659.362H627V673.283H649.737V659.362ZM627 563.681H649.737V577.601H627V563.681ZM649.737 683.283H627V697.203H649.737V683.283ZM655.421 468H678.158V481.92H655.421V468ZM678.158 587.601H655.421V601.522H678.158V587.601ZM655.421 491.92H678.158V505.841H655.421V491.92ZM678.158 611.522H655.421V625.442H678.158V611.522ZM655.421 515.841H678.158V529.761H655.421V515.841ZM678.158 635.442H655.421V649.362H678.158V635.442ZM655.421 539.761H678.158V553.681H655.421V539.761ZM678.158 659.362H655.421V673.283H678.158V659.362ZM655.421 563.681H678.158V577.601H655.421V563.681ZM678.158 683.283H655.421V697.203H678.158V683.283ZM683.842 468H706.579V481.92H683.842V468ZM706.579 587.601H683.842V601.522H706.579V587.601ZM683.842 491.92H706.579V505.841H683.842V491.92ZM706.579 611.522H683.842V625.442H706.579V611.522ZM683.842 515.841H706.579V529.761H683.842V515.841ZM706.579 635.442H683.842V649.362H706.579V635.442ZM683.842 539.761H706.579V553.681H683.842V539.761ZM706.579 659.362H683.842V673.283H706.579V659.362ZM683.842 563.681H706.579V577.601H683.842V563.681ZM706.579 683.283H683.842V697.203H706.579V683.283ZM712.263 468H735V481.92H712.263V468ZM735 587.601H712.263V601.522H735V587.601ZM712.263 491.92H735V505.841H712.263V491.92ZM735 611.522H712.263V625.442H735V611.522ZM712.263 515.841H735V529.761H712.263V515.841ZM735 635.442H712.263V649.362H735V635.442ZM712.263 539.761H735V553.681H712.263V539.761ZM735 659.362H712.263V673.283H735V659.362ZM712.263 563.681H735V577.601H712.263V563.681ZM735 683.283H712.263V697.203H735V683.283Z" fill="#EC868B"/>
<rect width="110" height="577" transform="matrix(-1 0 0 1 933 503)" fill="#F19195"/>
<path fill-rule="evenodd" clip-rule="evenodd" d="M915.167 502L915.167 490H923.333L923.333 502H915.167ZM933 503V489H823V503H933ZM906 502H914.167L914.167 490H906V502ZM905 502H896.833V490H905V502ZM895.833 490V502H887.667V490H895.833ZM886.667 490V502H878.5V490H886.667ZM877.5 490V502H869.333V490H877.5ZM868.333 490V502H860.167V490H868.333ZM859.167 490V502H851V490H859.167ZM850 490V502H841.833L841.833 490H850ZM840.833 490L840.833 502H832.667L832.667 490H840.833ZM831.667 490L831.667 502H824V490H831.667ZM932 490V502H924.333L924.333 490H932Z" fill="#F19195"/>
<rect width="136" height="639" transform="matrix(-1 0 0 1 1068 441)" fill="#F9ABAF"/>
<path fill-rule="evenodd" clip-rule="evenodd" d="M1068 441H932V1080H1068V441ZM1053 468H1030.26V481.92H1053V468ZM1030.26 587.601H1053V601.522H1030.26V587.601ZM1053 491.92H1030.26V505.841H1053V491.92ZM1030.26 611.522H1053V625.442H1030.26V611.522ZM1053 515.841H1030.26V529.761H1053V515.841ZM1030.26 635.442H1053V649.362H1030.26V635.442ZM1053 539.761H1030.26V553.681H1053V539.761ZM1030.26 659.362H1053V673.283H1030.26V659.362ZM1053 563.681H1030.26V577.601H1053V563.681ZM1030.26 683.283H1053V697.203H1030.26V683.283ZM1024.58 468H1001.84V481.92H1024.58V468ZM1001.84 587.601H1024.58V601.522H1001.84V587.601ZM1024.58 491.92H1001.84V505.841H1024.58V491.92ZM1001.84 611.522H1024.58V625.442H1001.84V611.522ZM1024.58 515.841H1001.84V529.761H1024.58V515.841ZM1001.84 635.442H1024.58V649.362H1001.84V635.442ZM1024.58 539.761H1001.84V553.681H1024.58V539.761ZM1001.84 659.362H1024.58V673.283H1001.84V659.362ZM1024.58 563.681H1001.84V577.601H1024.58V563.681ZM1001.84 683.283H1024.58V697.203H1001.84V683.283ZM996.158 468H973.421V481.92H996.158V468ZM973.421 587.601H996.158V601.522H973.421V587.601ZM996.158 491.92H973.421V505.841H996.158V491.92ZM973.421 611.522H996.158V625.442H973.421V611.522ZM996.158 515.841H973.421V529.761H996.158V515.841ZM973.421 635.442H996.158V649.362H973.421V635.442ZM996.158 539.761H973.421V553.681H996.158V539.761ZM973.421 659.362H996.158V673.283H973.421V659.362ZM996.158 563.681H973.421V577.601H996.158V563.681ZM973.421 683.283H996.158V697.203H973.421V683.283ZM967.737 468H945V481.92H967.737V468ZM945 587.601H967.737V601.522H945V587.601ZM967.737 491.92H945V505.841H967.737V491.92ZM945 611.522H967.737V625.442H945V611.522ZM967.737 515.841H945V529.761H967.737V515.841ZM945 635.442H967.737V649.362H945V635.442ZM967.737 539.761H945V553.681H967.737V539.761ZM945 659.362H967.737V673.283H945V659.362ZM967.737 563.681H945V577.601H967.737V563.681ZM945 683.283H967.737V697.203H945V683.283Z" fill="#EC868B"/>
<rect width="110" height="581" transform="matrix(-1 0 0 1 1239 499)" fill="#F9ABAF"/>
<path fill-rule="evenodd" clip-rule="evenodd" d="M1239 499H1129V1080H1239V499ZM1227.35 524.65H1216.32V536.92H1227.35V524.65ZM1216.32 632.012H1227.35V644.282H1216.32V632.012ZM1227.35 546.123H1216.32V558.393H1227.35V546.123ZM1216.32 653.485H1227.35V665.755H1216.32V653.485ZM1227.35 567.595H1216.32V579.865H1227.35V567.595ZM1216.32 674.957H1227.35V687.227H1216.32V674.957ZM1227.35 589.068H1216.32V601.338H1227.35V589.068ZM1216.32 696.43H1227.35V708.699H1216.32V696.43ZM1227.35 610.54H1216.32V622.81H1227.35V610.54ZM1216.32 717.902H1227.35V730.172H1216.32V717.902ZM1212.18 524.65H1201.14V536.92H1212.18V524.65ZM1201.14 632.012H1212.18V644.282H1201.14V632.012ZM1212.18 546.123H1201.14V558.393H1212.18V546.123ZM1201.14 653.485H1212.18V665.755H1201.14V653.485ZM1212.18 567.595H1201.14V579.865H1212.18V567.595ZM1201.14 674.957H1212.18V687.227H1201.14V674.957ZM1212.18 589.068H1201.14V601.338H1212.18V589.068ZM1201.14 696.43H1212.18V708.699H1201.14V696.43ZM1212.18 610.54H1201.14V622.81H1212.18V610.54ZM1201.14 717.902H1212.18V730.172H1201.14V717.902ZM1197.01 524.65H1185.97V536.92H1197.01V524.65ZM1185.97 632.012H1197.01V644.282H1185.97V632.012ZM1197.01 546.123H1185.97V558.393H1197.01V546.123ZM1185.97 653.485H1197.01V665.755H1185.97V653.485ZM1197.01 567.595H1185.97V579.865H1197.01V567.595ZM1185.97 674.957H1197.01V687.227H1185.97V674.957ZM1197.01 589.068H1185.97V601.338H1197.01V589.068ZM1185.97 696.43H1197.01V708.699H1185.97V696.43ZM1197.01 610.54H1185.97V622.81H1197.01V610.54ZM1185.97 717.902H1197.01V730.172H1185.97V717.902ZM1181.83 524.65H1170.8V536.92H1181.83V524.65ZM1170.8 632.012H1181.83V644.282H1170.8V632.012ZM1181.83 546.123H1170.8V558.393H1181.83V546.123ZM1170.8 653.485H1181.83V665.755H1170.8V653.485ZM1181.83 567.595H1170.8V579.865H1181.83V567.595ZM1170.8 674.957H1181.83V687.227H1170.8V674.957ZM1181.83 589.068H1170.8V601.338H1181.83V589.068ZM1170.8 696.43H1181.83V708.699H1170.8V696.43ZM1181.83 610.54H1170.8V622.81H1181.83V610.54ZM1170.8 717.902H1181.83V730.172H1170.8V717.902ZM1166.66 524.65H1155.62V536.92H1166.66V524.65ZM1155.62 632.012H1166.66V644.282H1155.62V632.012ZM1166.66 546.123H1155.62V558.393H1166.66V546.123ZM1155.62 653.485H1166.66V665.755H1155.62V653.485ZM1166.66 567.595H1155.62V579.865H1166.66V567.595ZM1155.62 674.957H1166.66V687.227H1155.62V674.957ZM1166.66 589.068H1155.62V601.338H1166.66V589.068ZM1155.62 696.43H1166.66V708.699H1155.62V696.43ZM1166.66 610.54H1155.62V622.81H1166.66V610.54ZM1155.62 717.902H1166.66V730.172H1155.62V717.902ZM1151.49 524.65H1140.45V536.92H1151.49V524.65ZM1140.45 632.012H1151.49V644.282H1140.45V632.012ZM1151.49 546.123H1140.45V558.393H1151.49V546.123ZM1140.45 653.485H1151.49V665.755H1140.45V653.485ZM1151.49 567.595H1140.45V579.865H1151.49V567.595ZM1140.45 674.957H1151.49V687.227H1140.45V674.957ZM1151.49 589.068H1140.45V601.338H1151.49V589.068ZM1140.45 696.43H1151.49V708.699H1140.45V696.43ZM1151.49 610.54H1140.45V622.81H1151.49V610.54ZM1140.45 717.902H1151.49V730.172H1140.45V717.902Z" fill="#EC868B"/>
<rect width="86" height="591" transform="matrix(-1 0 0 1 1410 489)" fill="#F19195"/>
<rect width="110" height="624" transform="matrix(-1 0 0 1 1622 456)" fill="#F19195"/>
<path fill-rule="evenodd" clip-rule="evenodd" d="M1604.11 455L1604.11 442H1612.3L1612.3 455H1604.11ZM1622 456V441H1511.65V456H1622ZM1594.91 455H1603.11L1603.11 442H1594.91V455ZM1593.91 455H1585.72V442H1593.91V455ZM1584.72 442V455H1576.52V442H1584.72ZM1575.52 442V455H1567.32V442H1575.52ZM1566.32 442V455H1558.13V442H1566.32ZM1557.13 442V455H1548.93V442H1557.13ZM1547.93 442V455H1539.74V442H1547.93ZM1538.74 442V455H1530.54L1530.54 442H1538.74ZM1529.54 442L1529.54 455H1521.34L1521.34 442H1529.54ZM1520.34 442L1520.34 455H1512.65V442H1520.34ZM1621 442V455H1613.3L1613.3 442H1621Z" fill="#F19195"/>
<rect x="1410" y="351" width="136" height="729" fill="#F9ABAF"/>
<path fill-rule="evenodd" clip-rule="evenodd" d="M1410 351H1546V1080H1410V351ZM1425 382.883H1447.74V399.321H1425V382.883ZM1447.74 524.114H1425V540.552H1447.74V524.114ZM1425 411.129H1447.74V427.567H1425V411.129ZM1447.74 552.361H1425V568.798H1447.74V552.361ZM1425 439.375H1447.74V455.813H1425V439.375ZM1447.74 580.607H1425V597.045H1447.74V580.607ZM1425 467.622H1447.74V484.06H1425V467.622ZM1447.74 608.853H1425V625.291H1447.74V608.853ZM1425 495.868H1447.74V512.306H1425V495.868ZM1447.74 637.099H1425V653.537H1447.74V637.099ZM1453.42 382.883H1476.16V399.321H1453.42V382.883ZM1476.16 524.114H1453.42V540.552H1476.16V524.114ZM1453.42 411.129H1476.16V427.567H1453.42V411.129ZM1476.16 552.361H1453.42V568.798H1476.16V552.361ZM1453.42 439.375H1476.16V455.813H1453.42V439.375ZM1476.16 580.607H1453.42V597.045H1476.16V580.607ZM1453.42 467.622H1476.16V484.06H1453.42V467.622ZM1476.16 608.853H1453.42V625.291H1476.16V608.853ZM1453.42 495.868H1476.16V512.306H1453.42V495.868ZM1476.16 637.099H1453.42V653.537H1476.16V637.099ZM1481.84 382.883H1504.58V399.321H1481.84V382.883ZM1504.58 524.114H1481.84V540.552H1504.58V524.114ZM1481.84 411.129H1504.58V427.567H1481.84V411.129ZM1504.58 552.361H1481.84V568.798H1504.58V552.361ZM1481.84 439.375H1504.58V455.813H1481.84V439.375ZM1504.58 580.607H1481.84V597.045H1504.58V580.607ZM1481.84 467.622H1504.58V484.06H1481.84V467.622ZM1504.58 608.853H1481.84V625.291H1504.58V608.853ZM1481.84 495.868H1504.58V512.306H1481.84V495.868ZM1504.58 637.099H1481.84V653.537H1504.58V637.099ZM1510.26 382.883H1533V399.321H1510.26V382.883ZM1533 524.114H1510.26V540.552H1533V524.114ZM1510.26 411.129H1533V427.567H1510.26V411.129ZM1533 552.361H1510.26V568.798H1533V552.361ZM1510.26 439.375H1533V455.813H1510.26V439.375ZM1533 580.607H1510.26V597.045H1533V580.607ZM1510.26 467.622H1533V484.06H1510.26V467.622ZM1533 608.853H1510.26V625.291H1533V608.853ZM1510.26 495.868H1533V512.306H1510.26V495.868ZM1533 637.099H1510.26V653.537H1533V637.099Z" fill="#EC868B"/>
<rect width="110" height="487" transform="matrix(-1 0 0 1 1722 593)" fill="#F9ABAF"/>
<path fill-rule="evenodd" clip-rule="evenodd" d="M1722 593H1612V1080H1722V593ZM1713.72 605.061H1702.69V616.175H1713.72V605.061ZM1702.69 627.288H1713.72V638.402H1702.69V627.288ZM1713.72 649.516H1702.69V660.63H1713.72V649.516ZM1702.69 671.744H1713.72V682.857H1702.69V671.744ZM1713.72 693.971H1702.69V705.085H1713.72V693.971ZM1686.14 605.061H1697.17V616.175H1686.14V605.061ZM1697.17 627.288H1686.14V638.402H1697.17V627.288ZM1686.14 649.516H1697.17V660.63H1686.14V649.516ZM1697.17 671.744H1686.14V682.857H1697.17V671.744ZM1686.14 693.971H1697.17V705.085H1686.14V693.971ZM1680.62 605.061H1669.58V616.175H1680.62V605.061ZM1669.58 627.288H1680.62V638.402H1669.58V627.288ZM1680.62 649.516H1669.58V660.63H1680.62V649.516ZM1669.58 671.744H1680.62V682.857H1669.58V671.744ZM1680.62 693.971H1669.58V705.085H1680.62V693.971ZM1653.03 605.061H1664.07V616.175H1653.03V605.061ZM1664.07 627.288H1653.03V638.402H1664.07V627.288ZM1653.03 649.516H1664.07V660.63H1653.03V649.516ZM1664.07 671.744H1653.03V682.857H1664.07V671.744ZM1653.03 693.971H1664.07V705.085H1653.03V693.971ZM1647.51 605.061H1636.48V616.175H1647.51V605.061ZM1636.48 627.288H1647.51V638.402H1636.48V627.288ZM1647.51 649.516H1636.48V660.63H1647.51V649.516ZM1636.48 671.744H1647.51V682.857H1636.48V671.744ZM1647.51 693.971H1636.48V705.085H1647.51V693.971ZM1619.92 605.061H1630.96V616.175H1619.92V605.061ZM1630.96 627.288H1619.92V638.402H1630.96V627.288ZM1619.92 649.516H1630.96V660.63H1619.92V649.516ZM1630.96 671.744H1619.92V682.857H1630.96V671.744ZM1619.92 693.971H1630.96V705.085H1619.92V693.971ZM1713.72 715.976H1702.69V727.09H1713.72V715.976ZM1702.69 738.203H1713.72V749.317H1702.69V738.203ZM1713.72 760.431H1702.69V771.545H1713.72V760.431ZM1702.69 782.659H1713.72V793.772H1702.69V782.659ZM1713.72 804.886H1702.69V816H1713.72V804.886ZM1686.14 715.976H1697.17V727.09H1686.14V715.976ZM1697.17 738.203H1686.14V749.317H1697.17V738.203ZM1686.14 760.431H1697.17V771.545H1686.14V760.431ZM1697.17 782.659H1686.14V793.772H1697.17V782.659ZM1686.14 804.886H1697.17V816H1686.14V804.886ZM1680.62 715.976H1669.58V727.09H1680.62V715.976ZM1669.58 738.203H1680.62V749.317H1669.58V738.203ZM1680.62 760.431H1669.58V771.545H1680.62V760.431ZM1669.58 782.659H1680.62V793.772H1669.58V782.659ZM1680.62 804.886H1669.58V816H1680.62V804.886ZM1653.03 715.976H1664.07V727.09H1653.03V715.976ZM1664.07 738.203H1653.03V749.317H1664.07V738.203ZM1653.03 760.431H1664.07V771.545H1653.03V760.431ZM1664.07 782.659H1653.03V793.772H1664.07V782.659ZM1653.03 804.886H1664.07V816H1653.03V804.886ZM1647.51 715.976H1636.48V727.09H1647.51V715.976ZM1636.48 738.203H1647.51V749.317H1636.48V738.203ZM1647.51 760.431H1636.48V771.545H1647.51V760.431ZM1636.48 782.659H1647.51V793.772H1636.48V782.659ZM1647.51 804.886H1636.48V816H1647.51V804.886ZM1619.92 715.976H1630.96V727.09H1619.92V715.976ZM1630.96 738.203H1619.92V749.317H1630.96V738.203ZM1619.92 760.431H1630.96V771.545H1619.92V760.431ZM1630.96 782.659H1619.92V793.772H1630.96V782.659ZM1619.92 804.886H1630.96V816H1619.92V804.886Z" fill="#EC868B"/>
<rect width="136" height="639" transform="matrix(-1 0 0 1 1946 441)" fill="#F9ABAF"/>
<path fill-rule="evenodd" clip-rule="evenodd" d="M1946 441H1810V1080H1946V441ZM1931 468H1908.26V481.92H1931V468ZM1908.26 587.601H1931V601.522H1908.26V587.601ZM1931 491.92H1908.26V505.841H1931V491.92ZM1908.26 611.522H1931V625.442H1908.26V611.522ZM1931 515.841H1908.26V529.761H1931V515.841ZM1908.26 635.442H1931V649.362H1908.26V635.442ZM1931 539.761H1908.26V553.681H1931V539.761ZM1908.26 659.362H1931V673.283H1908.26V659.362ZM1931 563.681H1908.26V577.601H1931V563.681ZM1908.26 683.283H1931V697.203H1908.26V683.283ZM1902.58 468H1879.84V481.92H1902.58V468ZM1879.84 587.601H1902.58V601.522H1879.84V587.601ZM1902.58 491.92H1879.84V505.841H1902.58V491.92ZM1879.84 611.522H1902.58V625.442H1879.84V611.522ZM1902.58 515.841H1879.84V529.761H1902.58V515.841ZM1879.84 635.442H1902.58V649.362H1879.84V635.442ZM1902.58 539.761H1879.84V553.681H1902.58V539.761ZM1879.84 659.362H1902.58V673.283H1879.84V659.362ZM1902.58 563.681H1879.84V577.601H1902.58V563.681ZM1879.84 683.283H1902.58V697.203H1879.84V683.283ZM1874.16 468H1851.42V481.92H1874.16V468ZM1851.42 587.601H1874.16V601.522H1851.42V587.601ZM1874.16 491.92H1851.42V505.841H1874.16V491.92ZM1851.42 611.522H1874.16V625.442H1851.42V611.522ZM1874.16 515.841H1851.42V529.761H1874.16V515.841ZM1851.42 635.442H1874.16V649.362H1851.42V635.442ZM1874.16 539.761H1851.42V553.681H1874.16V539.761ZM1851.42 659.362H1874.16V673.283H1851.42V659.362ZM1874.16 563.681H1851.42V577.601H1874.16V563.681ZM1851.42 683.283H1874.16V697.203H1851.42V683.283ZM1845.74 468H1823V481.92H1845.74V468ZM1823 587.601H1845.74V601.522H1823V587.601ZM1845.74 491.92H1823V505.841H1845.74V491.92ZM1823 611.522H1845.74V625.442H1823V611.522ZM1845.74 515.841H1823V529.761H1845.74V515.841ZM1823 635.442H1845.74V649.362H1823V635.442ZM1845.74 539.761H1823V553.681H1845.74V539.761ZM1823 659.362H1845.74V673.283H1823V659.362ZM1845.74 563.681H1823V577.601H1845.74V563.681ZM1823 683.283H1845.74V697.203H1823V683.283Z" fill="#EC868B"/>
</g>
<defs>
<clipPath id="clip0">
<rect width="1920" height="1080" fill="white"/>
</clipPath>
</defs>
</svg>
