<svg width="1920" height="1080" viewBox="0 0 1920 1080" fill="none" xmlns="http://www.w3.org/2000/svg">
<g filter="url(#filter0_di)">
<path d="M721.28 609.12C715.04 609.12 709.04 607.88 703.28 605.4C697.6 603 693.04 599.44 689.6 594.72C686.24 590 684.2 584.84 683.48 579.24C683.16 576.84 683 574.2 683 571.32C683 568.44 683.36 564.64 684.08 559.92C684.8 555.2 686.36 550.08 688.76 544.56C691.24 539.04 694.16 534.16 697.52 529.92C696.16 524.56 695.48 519.64 695.48 515.16C695.48 510.6 696 506.36 697.04 502.44C697.2 501.8 697.44 501.36 697.76 501.12C698.16 500.8 698.44 500.64 698.6 500.64C699.4 500.64 699.64 501.64 699.32 503.64C699 505.56 698.84 508.36 698.84 512.04C698.84 515.64 699.36 520.24 700.4 525.84C706.8 517.6 714.32 511.6 722.96 507.84C729.6 504.96 736.56 503.52 743.84 503.52C745.92 503.52 748.08 503.64 750.32 503.88C762.64 505.24 770.96 509.96 775.28 518.04C777.04 521.4 777.92 524.88 777.92 528.48C777.92 532.08 777.08 535.8 775.4 539.64C771.88 547.32 765.84 553 757.28 556.68C751.76 559.08 745.72 560.28 739.16 560.28C736.36 560.28 733.52 560.08 730.64 559.68C716.32 557.6 706.4 550.8 700.88 539.28C698.96 542 696.96 546.56 694.88 552.96C692.88 559.36 691.72 564.28 691.4 567.72C691.08 571.16 690.92 574.04 690.92 576.36C690.92 578.68 691.08 581.08 691.4 583.56C691.96 587.96 693.64 591.96 696.44 595.56C699.24 599.08 702.96 601.52 707.6 602.88C712.32 604.32 716.4 605.04 719.84 605.04C730.96 605.04 740.44 602.72 748.28 598.08C753 595.28 756.68 592.12 759.32 588.6C762.04 585 764.92 580.08 767.96 573.84C768.44 572.8 768.92 572.44 769.4 572.76C769.96 573.08 769.96 573.84 769.4 575.04C766.36 581.2 763.52 586.08 760.88 589.68C758.32 593.28 754.8 596.64 750.32 599.76C741.36 606 731.68 609.12 721.28 609.12ZM703.28 535.44C708.96 549.92 720.8 557.16 738.8 557.16C748.96 557.16 757.08 554.32 763.16 548.64C769.32 542.96 772.4 536.52 772.4 529.32C772.4 522.12 769.28 516.52 763.04 512.52C758.4 509.56 752.68 508.08 745.88 508.08C739.08 508.08 732.24 510.04 725.36 513.96C716.72 519 709.36 526.16 703.28 535.44Z" fill="#FFC163"/>
<path d="M789.195 591.6C789.195 593.84 789.995 594.96 791.595 594.96C795.355 594.96 800.675 587.92 807.555 573.84C808.115 572.72 808.595 572.28 808.995 572.52C809.475 572.76 809.715 573.08 809.715 573.48C809.715 573.88 809.235 575.04 808.275 576.96C807.395 578.8 806.475 580.6 805.515 582.36C804.635 584.04 803.315 586.28 801.555 589.08C797.875 594.68 793.955 597.48 789.795 597.48C787.075 597.48 784.915 596.36 783.315 594.12C782.595 593.08 782.235 591.68 782.235 589.92C782.235 588.08 782.635 585.88 783.435 583.32C784.235 580.76 786.435 576.6 790.035 570.84C790.915 569.4 791.355 568.28 791.355 567.48C791.355 566.6 790.675 566.16 789.315 566.16C787.955 566.16 785.355 567.96 781.515 571.56C775.755 576.84 770.155 584.76 764.715 595.32C764.155 596.52 762.675 597.12 760.275 597.12C758.115 597.28 756.755 597.52 756.195 597.84C771.395 566.24 782.395 544.2 789.195 531.72C790.715 528.92 792.035 526.96 793.155 525.84C794.355 524.72 795.755 524.16 797.355 524.16C797.755 524.16 798.595 524.28 799.875 524.52C801.155 524.68 802.115 524.72 802.755 524.64C800.355 527.12 796.035 534 789.795 545.28C783.635 556.48 777.715 567.88 772.035 579.48C775.795 574.76 779.155 571.08 782.115 568.44C785.155 565.8 788.835 563.32 793.155 561C797.475 558.6 800.635 557.4 802.635 557.4C803.115 557.4 803.555 557.48 803.955 557.64C794.115 574.92 789.195 586.24 789.195 591.6Z" fill="#FFC163"/>
<path d="M829.519 555C835.359 555 838.279 558.68 838.279 566.04C838.279 569.4 837.399 573 835.639 576.84C833.399 582.04 830.039 586.76 825.559 591C826.599 593 828.479 594 831.199 594C833.359 594 835.399 592.92 837.319 590.76C839.719 588.28 841.439 586.12 842.479 584.28C843.519 582.36 844.279 580.96 844.759 580.08C845.239 579.2 845.839 577.96 846.559 576.36C847.359 574.68 847.839 573.68 847.999 573.36C848.159 572.96 848.439 572.76 848.839 572.76C849.639 572.68 850.039 572.96 850.039 573.6C850.039 573.84 849.959 574.12 849.799 574.44L849.079 576.12C848.599 577.24 848.239 578.04 847.999 578.52C847.759 579 847.319 579.88 846.679 581.16C846.119 582.36 845.599 583.32 845.119 584.04C844.719 584.76 844.119 585.72 843.319 586.92C842.599 588.12 841.919 589.08 841.279 589.8C840.719 590.52 839.999 591.32 839.119 592.2C838.239 593.08 837.399 593.76 836.599 594.24C834.599 595.44 832.719 596.04 830.959 596.04C827.679 596.04 825.119 595 823.279 592.92C819.599 595.64 816.199 597 813.079 597C807.239 597 804.319 593.32 804.319 585.96C804.319 582.6 805.199 579 806.959 575.16C809.359 569.56 812.719 564.8 817.039 560.88C821.439 556.96 825.599 555 829.519 555ZM830.839 558.72C828.679 558.72 826.119 560.16 823.159 563.04C820.199 565.92 817.559 569.84 815.239 574.8C812.439 580.56 811.039 585.28 811.039 588.96C811.039 592.64 812.439 594.48 815.239 594.48C817.239 594.48 819.479 593.4 821.959 591.24C820.679 589.4 820.039 587.44 820.039 585.36C820.199 581.92 821.599 580.2 824.239 580.2C825.279 580.2 826.119 580.56 826.759 581.28C827.479 582 827.839 582.68 827.839 583.32C827.839 583.88 827.759 584.48 827.599 585.12C828.959 583.12 830.519 580.28 832.279 576.6C834.279 572.52 835.279 568.52 835.279 564.6C835.279 560.68 833.799 558.72 830.839 558.72Z" fill="#FFC163"/>
<path d="M931.129 552L918.289 551.88C907.729 551.88 899.489 554.44 893.569 559.56C886.609 565.48 883.129 572.36 883.129 580.2C883.129 583.88 883.969 587.28 885.649 590.4C887.409 593.44 890.489 595.96 894.889 597.96C899.369 599.96 905.369 600.96 912.889 600.96C920.489 600.96 928.489 599.36 936.889 596.16C945.289 592.96 952.369 589.12 958.129 584.64C964.689 579.52 967.969 575.04 967.969 571.2C967.969 569.36 967.009 568.24 965.089 567.84C963.169 567.36 962.169 566.84 962.089 566.28C961.929 565.56 962.529 565.24 963.889 565.32C965.249 565.4 966.369 565.68 967.249 566.16C970.849 568.08 972.649 570.56 972.649 573.6C972.649 578.08 969.529 582.76 963.289 587.64C957.129 592.52 949.329 596.4 939.889 599.28C930.449 602.16 921.609 603.6 913.369 603.6C905.129 603.6 898.449 602.8 893.329 601.2C884.289 598.4 878.409 593.24 875.689 585.72C874.969 583.8 874.609 581.96 874.609 580.2C874.609 578.44 874.929 576.28 875.569 573.72C876.209 571.08 877.649 568.08 879.889 564.72C882.129 561.36 885.369 558.24 889.609 555.36C893.849 552.48 898.369 550.36 903.169 549C908.049 547.56 912.409 546.76 916.249 546.6C912.249 545.16 908.849 543.16 906.049 540.6C903.249 538.04 901.849 535.28 901.849 532.32C901.849 532.08 901.849 531.84 901.849 531.6C902.409 525.12 906.049 519.32 912.769 514.2C919.489 509 926.529 505.44 933.889 503.52C941.249 501.52 947.609 500.52 952.969 500.52C954.649 500.52 956.289 500.6 957.889 500.76C964.529 501.56 969.289 503.24 972.169 505.8C975.049 508.28 976.489 510.8 976.489 513.36C976.489 516.96 974.409 520.44 970.249 523.8C966.169 527.08 961.209 529.36 955.369 530.64C953.929 530.96 952.729 531.12 951.769 531.12C950.889 531.12 950.489 530.88 950.569 530.4C950.889 529.44 952.249 528.84 954.649 528.6C957.049 528.28 959.369 527.32 961.609 525.72C966.089 522.44 968.649 518.2 969.289 513C969.289 512.76 969.289 512.52 969.289 512.28C969.289 510.28 968.329 508.44 966.409 506.76C964.009 504.52 959.969 503.4 954.289 503.4C948.609 503.4 942.729 504.32 936.649 506.16C930.569 507.92 924.969 510.88 919.849 515.04C913.769 520 910.729 525.4 910.729 531.24C910.729 533.56 911.409 535.68 912.769 537.6C914.209 539.52 916.249 540.96 918.889 541.92C921.609 542.8 924.329 543.56 927.049 544.2C933.209 545.48 936.289 547.16 936.289 549.24C936.289 551.08 934.569 552 931.129 552Z" fill="#FFC163"/>
<path d="M972.581 590.04C972.581 586.6 974.061 582.44 977.021 577.56C975.741 577.56 975.381 576.92 975.941 575.64L978.101 571.44C980.821 566.24 983.061 561.84 984.821 558.24C985.621 556.56 987.181 555.72 989.501 555.72H996.821C993.941 557.8 991.021 561.84 988.061 567.84C985.181 573.76 982.941 578.44 981.341 581.88C979.741 585.24 978.941 587.8 978.941 589.56C978.941 591.32 979.221 592.56 979.781 593.28C980.421 594 981.261 594.36 982.301 594.36C983.821 594.36 985.941 592.76 988.661 589.56C992.901 584.6 998.861 574.16 1006.54 558.24C1007.42 556.56 1008.98 555.72 1011.22 555.72H1017.7C1015.94 557.08 1014.54 558.48 1013.5 559.92C1012.54 561.36 1011.18 563.92 1009.42 567.6C1004.62 577.2 1001.94 583.56 1001.38 586.68C1001.14 587.8 1001.02 588.84 1001.02 589.8C1001.02 592.36 1001.9 593.72 1003.66 593.88C1007.98 593.88 1013.3 587.2 1019.62 573.84C1020.1 572.72 1020.58 572.28 1021.06 572.52C1021.54 572.76 1021.78 573.08 1021.78 573.48C1021.78 573.88 1021.42 574.8 1020.7 576.24C1019.98 577.68 1019.26 579.08 1018.54 580.44C1017.9 581.8 1016.86 583.68 1015.42 586.08C1014.06 588.4 1012.78 590.24 1011.58 591.6C1008.46 595.12 1005.38 596.88 1002.34 596.88C999.381 596.88 997.341 595.56 996.221 592.92C995.741 591.72 995.501 590.2 995.501 588.36C995.501 586.52 995.901 584.24 996.701 581.52C990.861 591.76 985.461 596.88 980.501 596.88C976.181 596.88 973.661 595.08 972.941 591.48C972.701 591.08 972.581 590.6 972.581 590.04Z" fill="#FFC163"/>
<path d="M1055.91 557.64C1046.07 574.92 1041.15 586.2 1041.15 591.48C1041.15 593.56 1041.91 594.6 1043.43 594.6C1047.51 594.6 1052.99 587.68 1059.87 573.84C1060.35 572.72 1060.83 572.28 1061.31 572.52C1061.79 572.76 1062.03 573.08 1062.03 573.48C1062.03 573.88 1061.87 574.36 1061.55 574.92C1057.31 583.48 1053.71 589.4 1050.75 592.68C1047.87 595.88 1044.95 597.48 1041.99 597.48C1039.11 597.48 1036.91 596.36 1035.39 594.12C1034.59 593.08 1034.19 591.68 1034.19 589.92C1034.19 588.08 1034.59 585.88 1035.39 583.32C1036.19 580.76 1038.39 576.6 1041.99 570.84C1042.87 569.4 1043.31 568.28 1043.31 567.48C1043.31 566.6 1042.63 566.16 1041.27 566.16C1039.91 566.16 1037.31 567.96 1033.47 571.56C1027.71 576.84 1022.15 584.76 1016.79 595.32C1016.31 596.12 1015.75 596.64 1015.11 596.88C1014.55 597.04 1013.39 597.16 1011.63 597.24C1009.87 597.32 1008.71 597.52 1008.15 597.84C1009.43 595.28 1011.95 590.04 1015.71 582.12C1022.43 568.12 1026.83 560.12 1028.91 558.12C1029.87 557.16 1031.19 556.68 1032.87 556.68C1033.19 556.68 1033.99 556.8 1035.27 557.04C1036.63 557.28 1037.63 557.32 1038.27 557.16C1035.31 558.76 1030.47 566.28 1023.75 579.72C1027.51 575.08 1030.91 571.4 1033.95 568.68C1037.07 565.88 1040.79 563.32 1045.11 561C1049.43 558.6 1052.59 557.4 1054.59 557.4C1055.07 557.4 1055.51 557.48 1055.91 557.64Z" fill="#FFC163"/>
<path d="M1226.88 512.28L1221.72 513.24C1215.56 523.88 1209.64 538.2 1203.96 556.2C1201.8 563 1198.76 570.84 1194.84 579.72C1190.92 588.52 1186.56 596.68 1181.76 604.2C1175.28 614.28 1166.64 622.56 1155.84 629.04C1145.12 635.6 1135.32 639.48 1126.44 640.68C1122.36 641.24 1117.72 641.52 1112.52 641.52C1107.32 641.52 1101.96 640.6 1096.44 638.76C1087.8 635.88 1081.88 631.16 1078.68 624.6C1077.24 621.56 1076.52 618 1076.52 613.92C1076.52 609.84 1077.6 605.04 1079.76 599.52C1081.28 595.84 1083.96 592.4 1087.8 589.2C1091.64 586 1094.64 584.36 1096.8 584.28C1097.76 584.2 1098.24 584.36 1098.24 584.76C1098.16 585.08 1097.64 585.48 1096.68 585.96C1094.12 587 1091.28 589.28 1088.16 592.8C1085.04 596.32 1083 599.84 1082.04 603.36C1081 606.96 1080.48 609.72 1080.48 611.64C1080.48 617.48 1082.04 622.2 1085.16 625.8C1087.32 628.2 1090 630.36 1093.2 632.28C1096.4 634.2 1099.84 635.52 1103.52 636.24C1108.96 637.28 1113.28 637.8 1116.48 637.8C1119.68 637.8 1122.52 637.48 1125 636.84C1130.44 635.64 1135.68 633.64 1140.72 630.84C1145.84 628.04 1150.36 624.96 1154.28 621.6C1158.2 618.32 1162.08 614.24 1165.92 609.36C1169.84 604.48 1173.12 600.04 1175.76 596.04C1178.4 592.04 1181.2 587.24 1184.16 581.64C1188.96 572.52 1193.88 562.04 1198.92 550.2C1205.24 536.12 1211.64 523.96 1218.12 513.72C1207 515.56 1195.68 519.56 1184.16 525.72C1178.32 528.84 1173.32 532.8 1169.16 537.6C1163.8 543.68 1161.12 550.2 1161.12 557.16C1161.12 560.92 1162 563.84 1163.76 565.92C1165.6 568 1167.52 569.04 1169.52 569.04C1171.52 569.04 1173.72 568.6 1176.12 567.72C1178.52 566.84 1180.68 565.32 1182.6 563.16C1185.64 559.64 1187.16 555.6 1187.16 551.04C1187.16 549.12 1186.88 547.84 1186.32 547.2C1185.36 546.56 1185.28 545.96 1186.08 545.4C1186.96 544.92 1187.88 545.2 1188.84 546.24C1189.64 548 1190.04 550.08 1190.04 552.48C1190.04 554.8 1189.16 557.48 1187.4 560.52C1184.44 565.56 1180.36 569 1175.16 570.84C1172.76 571.64 1170.48 572.04 1168.32 572.04C1164.72 572.04 1161.48 570.88 1158.6 568.56C1154.92 565.52 1153.08 561.44 1153.08 556.32C1153.08 549.84 1155.4 543.64 1160.04 537.72C1163.56 533.16 1167.68 529.4 1172.4 526.44C1177.2 523.48 1182.6 520.84 1188.6 518.52C1198.28 514.76 1208.8 512.12 1220.16 510.6C1221.12 509 1222.56 507.12 1224.48 504.96C1226.4 502.8 1228 501.52 1229.28 501.12C1230.56 500.72 1231.6 500.52 1232.4 500.52C1235.2 500.52 1236.6 501.72 1236.6 504.12C1236.52 506.28 1235.64 507.96 1233.96 509.16C1232.28 510.28 1229.92 511.32 1226.88 512.28ZM1230.6 504.36C1230.44 504.36 1230.24 504.4 1230 504.48C1229.84 504.56 1229.56 504.76 1229.16 505.08C1228.84 505.32 1228.52 505.56 1228.2 505.8C1227.88 506.04 1227.48 506.4 1227 506.88C1226.6 507.36 1226.24 507.76 1225.92 508.08C1225.68 508.32 1225.32 508.72 1224.84 509.28C1224.36 509.76 1224.04 510.08 1223.88 510.24C1229.4 509.28 1232.12 507.8 1232.04 505.8C1231.88 504.84 1231.4 504.36 1230.6 504.36Z" fill="#FFC163"/>
<path d="M1223.26 550.32C1222.14 551.28 1220.9 551.76 1219.54 551.76C1218.18 551.76 1217.1 551.28 1216.3 550.32C1215.5 549.36 1215.18 548.2 1215.34 546.84C1215.58 545.48 1216.26 544.32 1217.38 543.36C1218.5 542.4 1219.74 541.92 1221.1 541.92C1222.46 541.92 1223.54 542.4 1224.34 543.36C1225.22 544.32 1225.54 545.48 1225.3 546.84C1225.06 548.2 1224.38 549.36 1223.26 550.32ZM1211.5 594.36C1213.02 594.36 1214.62 593.6 1216.3 592.08C1219.26 589.12 1223.02 583.08 1227.58 573.96C1228.14 572.76 1228.7 572.4 1229.26 572.88C1229.42 573.04 1229.5 573.32 1229.5 573.72C1229.5 574.04 1229.18 574.92 1228.54 576.36C1227.9 577.72 1227.3 578.96 1226.74 580.08C1226.26 581.2 1225.26 583.04 1223.74 585.6C1222.3 588.08 1220.98 590 1219.78 591.36C1216.5 595.12 1213.38 597 1210.42 597C1207.54 597 1205.46 596.12 1204.18 594.36C1202.9 592.6 1202.26 590.64 1202.26 588.48C1202.26 586.32 1202.78 583.96 1203.82 581.4L1211.5 561.84C1211.66 561.36 1211.74 560.72 1211.74 559.92C1211.74 559.12 1211.26 558.08 1210.3 556.8L1216.9 556.68C1218.74 556.68 1219.82 557.04 1220.14 557.76C1220.46 558.4 1220.22 559.44 1219.42 560.88L1209.82 583.32C1208.46 586.28 1207.78 588.8 1207.78 590.88C1207.78 593.2 1209.02 594.36 1211.5 594.36Z" fill="#FFC163"/>
</g>
<defs>
<filter id="filter0_di" x="633" y="450.52" width="653.601" height="241" filterUnits="userSpaceOnUse" color-interpolation-filters="sRGB">
<feFlood flood-opacity="0" result="BackgroundImageFix"/>
<feColorMatrix in="SourceAlpha" type="matrix" values="0 0 0 0 0 0 0 0 0 0 0 0 0 0 0 0 0 0 127 0"/>
<feOffset/>
<feGaussianBlur stdDeviation="25"/>
<feColorMatrix type="matrix" values="0 0 0 0 1 0 0 0 0 0.968627 0 0 0 0 0.933333 0 0 0 1 0"/>
<feBlend mode="normal" in2="BackgroundImageFix" result="effect1_dropShadow"/>
<feBlend mode="normal" in="SourceGraphic" in2="effect1_dropShadow" result="shape"/>
<feColorMatrix in="SourceAlpha" type="matrix" values="0 0 0 0 0 0 0 0 0 0 0 0 0 0 0 0 0 0 127 0" result="hardAlpha"/>
<feOffset/>
<feGaussianBlur stdDeviation="5"/>
<feComposite in2="hardAlpha" operator="arithmetic" k2="-1" k3="1"/>
<feColorMatrix type="matrix" values="0 0 0 0 0.791667 0 0 0 0 0.475 0 0 0 0 0 0 0 0 1 0"/>
<feBlend mode="normal" in2="shape" result="effect2_innerShadow"/>
</filter>
</defs>
</svg>
