<svg width="500" height="200" viewBox="0 0 500 200" fill="none" xmlns="http://www.w3.org/2000/svg">
<path d="M168 8C169.591 8 171.117 8.63214 172.243 9.75736C173.368 10.8826 174 12.4087 174 14V86C174 87.5913 173.368 89.1174 172.243 90.2426C171.117 91.3679 169.591 92 168 92H132C130.409 92 128.883 91.3679 127.757 90.2426C126.632 89.1174 126 87.5913 126 86V14C126 12.4087 126.632 10.8826 127.757 9.75736C128.883 8.63214 130.409 8 132 8H168ZM132 2C128.817 2 125.765 3.26428 123.515 5.51472C121.264 7.76516 120 10.8174 120 14V86C120 89.1826 121.264 92.2348 123.515 94.4853C125.765 96.7357 128.817 98 132 98H168C171.183 98 174.235 96.7357 176.485 94.4853C178.736 92.2348 180 89.1826 180 86V14C180 10.8174 178.736 7.76516 176.485 5.51472C174.235 3.26428 171.183 2 168 2L132 2Z" fill="black"/>
<path d="M150 86C151.591 86 153.117 85.3679 154.243 84.2426C155.368 83.1174 156 81.5913 156 80C156 78.4087 155.368 76.8826 154.243 75.7574C153.117 74.6321 151.591 74 150 74C148.409 74 146.883 74.6321 145.757 75.7574C144.632 76.8826 144 78.4087 144 80C144 81.5913 144.632 83.1174 145.757 84.2426C146.883 85.3679 148.409 86 150 86Z" fill="black"/>
<path fill-rule="evenodd" clip-rule="evenodd" d="M6.25 21.875L9.375 18.75H90.625L93.75 21.875V78.125L90.625 81.25H9.375L6.25 78.125V21.875ZM12.5 28.3437V75H87.5V28.35L51.9375 55.625H48.125L12.5 28.3437ZM81.4375 25H18.5625L50 49.1812L81.4375 25Z" fill="black"/>
<path d="M278.125 40.625C278.125 33.1658 275.162 26.0121 269.887 20.7376C264.613 15.4632 257.459 12.5 250 12.5C242.541 12.5 235.387 15.4632 230.113 20.7376C224.838 26.0121 221.875 33.1658 221.875 40.625C221.875 52.1625 231.106 67.2 250 85.2125C268.894 67.2 278.125 52.1625 278.125 40.625ZM250 93.75C227.081 72.9188 215.625 55.2062 215.625 40.625C215.625 31.5082 219.247 22.7648 225.693 16.3182C232.14 9.87164 240.883 6.25 250 6.25C259.117 6.25 267.86 9.87164 274.307 16.3182C280.753 22.7648 284.375 31.5082 284.375 40.625C284.375 55.2062 272.919 72.9188 250 93.75Z" fill="black"/>
<path d="M250 50C252.486 50 254.871 49.0123 256.629 47.2541C258.387 45.496 259.375 43.1114 259.375 40.625C259.375 38.1386 258.387 35.754 256.629 33.9959C254.871 32.2377 252.486 31.25 250 31.25C247.514 31.25 245.129 32.2377 243.371 33.9959C241.613 35.754 240.625 38.1386 240.625 40.625C240.625 43.1114 241.613 45.496 243.371 47.2541C245.129 49.0123 247.514 50 250 50V50ZM250 56.25C245.856 56.25 241.882 54.6038 238.951 51.6735C236.021 48.7433 234.375 44.769 234.375 40.625C234.375 36.481 236.021 32.5067 238.951 29.5765C241.882 26.6462 245.856 25 250 25C254.144 25 258.118 26.6462 261.049 29.5765C263.979 32.5067 265.625 36.481 265.625 40.625C265.625 44.769 263.979 48.7433 261.049 51.6735C258.118 54.6038 254.144 56.25 250 56.25Z" fill="black"/>
<path d="M351.912 6.91874C351.358 6.48643 350.675 6.25165 349.972 6.25165C349.269 6.25165 348.586 6.48643 348.031 6.91874L303.125 41.9344L307.009 46.8469L312.5 42.5656V81.25C312.503 82.9066 313.163 84.4944 314.334 85.6658C315.506 86.8372 317.093 87.4967 318.75 87.5H381.25C382.907 87.4967 384.494 86.8372 385.666 85.6658C386.837 84.4944 387.497 82.9066 387.5 81.25V42.5937L392.991 46.875L396.875 41.9625L351.912 6.91874ZM356.25 81.25H343.75V56.25H356.25V81.25ZM362.5 81.25V56.25C362.498 54.5929 361.839 53.0041 360.668 51.8324C359.496 50.6607 357.907 50.0016 356.25 50H343.75C342.093 50.0016 340.504 50.6607 339.332 51.8324C338.161 53.0041 337.502 54.5929 337.5 56.25V81.25H318.75V37.6937L350 13.35L381.25 37.725V81.25H362.5Z" fill="black"/>
<path d="M487.646 21.9042C491.437 26.4542 493.329 31.7625 493.329 37.8292C493.329 59.8167 480.821 66.2625 469.067 68.1583C470.583 70.8125 470.962 73.8458 470.962 76.8792V92.4208C470.962 94.3167 469.825 95.4542 468.308 95.4542C467.908 95.4598 467.511 95.3851 467.141 95.2347C466.77 95.0842 466.434 94.861 466.151 94.5782C465.868 94.2954 465.645 93.9588 465.494 93.5882C465.344 93.2177 465.269 92.8207 465.275 92.4208V76.8792C465.475 75.2901 465.305 73.6765 464.779 72.1638C464.253 70.6512 463.384 69.2804 462.242 68.1583L464.137 63.2292C475.892 61.7125 488.025 57.9208 488.025 37.45C488.025 32.5208 486.129 27.9708 482.717 24.1792L481.958 21.15C483.4 17.5169 483.533 13.4952 482.333 9.77499C480.442 10.15 476.65 10.9125 470.208 15.4625L467.929 15.8375C458.974 13.5636 449.593 13.5636 440.637 15.8375L438.358 15.4625C431.542 11.2917 427.75 10.1542 425.85 10.1542C424.712 13.9458 424.712 18.1125 426.225 21.5292L425.471 24.5583C421.679 28.35 419.783 33.2792 419.783 37.8292C419.783 57.9208 431.158 62.0917 443.667 63.6083L445.183 68.5375C442.908 70.8125 441.771 73.8458 442.15 76.8792V92.8C442.156 93.1999 442.081 93.5969 441.931 93.9674C441.78 94.338 441.557 94.6746 441.274 94.9574C440.991 95.2402 440.655 95.4634 440.284 95.6139C439.914 95.7643 439.517 95.8389 439.117 95.8333C438.717 95.8389 438.32 95.7643 437.949 95.6139C437.579 95.4634 437.242 95.2402 436.959 94.9574C436.676 94.6746 436.453 94.338 436.303 93.9674C436.152 93.5969 436.078 93.1999 436.083 92.8V84.0833C423.575 86.7375 418.646 80.2917 414.854 75.3667C412.958 73.0917 411.442 71.1958 409.546 70.8167C409.171 70.4375 408.029 68.9208 408.408 67.4042C408.787 65.8875 410.304 64.75 411.825 65.5083C415.617 66.2667 417.887 69.3 420.158 71.9542C423.575 76.5042 426.987 80.6708 437.221 78.4V76.8833C436.846 73.85 437.6 70.8167 439.117 68.1625C427.742 65.8875 414.475 59.4417 414.475 37.8333C414.475 31.7667 416.371 26.4583 420.162 21.9083C419.025 16.6042 419.404 10.9167 421.3 6.36666L423.196 4.84999C423.954 4.47082 429.262 3.33332 440.25 10.1542C449.335 7.87946 458.84 7.87946 467.925 10.1542C478.546 2.94999 484.233 4.08332 484.992 4.46666L486.887 5.98332C488.783 11.2917 489.162 16.6 487.646 21.9042V21.9042Z" fill="black"/>
<path fill-rule="evenodd" clip-rule="evenodd" d="M50 109.375C27.5634 109.375 9.375 127.563 9.375 150C9.375 172.437 27.5634 190.625 50 190.625C72.4366 190.625 90.625 172.437 90.625 150C90.625 127.563 72.4366 109.375 50 109.375ZM3.125 150C3.125 124.112 24.1117 103.125 50 103.125C75.8883 103.125 96.875 124.112 96.875 150C96.875 175.888 75.8883 196.875 50 196.875C24.1117 196.875 3.125 175.888 3.125 150Z" fill="black"/>
<path fill-rule="evenodd" clip-rule="evenodd" d="M50 121.875C51.7259 121.875 53.125 123.274 53.125 125V148.706L64.7097 160.29C65.9301 161.511 65.9301 163.489 64.7097 164.71C63.4893 165.93 61.5107 165.93 60.2903 164.71L47.7903 152.21C47.2042 151.624 46.875 150.829 46.875 150V125C46.875 123.274 48.2741 121.875 50 121.875Z" fill="black"/>
<path d="M175 186.458H125C121.961 186.458 119.047 185.251 116.898 183.102C114.749 180.953 113.542 178.039 113.542 175V125C113.542 121.961 114.749 119.047 116.898 116.898C119.047 114.749 121.961 113.542 125 113.542H150C150.829 113.542 151.624 113.871 152.21 114.457C152.796 115.043 153.125 115.838 153.125 116.667C153.125 117.495 152.796 118.29 152.21 118.876C151.624 119.462 150.829 119.792 150 119.792H125C123.619 119.792 122.294 120.34 121.317 121.317C120.34 122.294 119.792 123.619 119.792 125V175C119.792 176.381 120.34 177.706 121.317 178.683C122.294 179.66 123.619 180.208 125 180.208H175C176.381 180.208 177.706 179.66 178.683 178.683C179.66 177.706 180.208 176.381 180.208 175V150C180.208 149.171 180.538 148.376 181.124 147.79C181.71 147.204 182.505 146.875 183.333 146.875C184.162 146.875 184.957 147.204 185.543 147.79C186.129 148.376 186.458 149.171 186.458 150V175C186.458 178.039 185.251 180.953 183.102 183.102C180.953 185.251 178.039 186.458 175 186.458ZM183.333 136.458C182.508 136.448 181.719 136.115 181.136 135.531C180.552 134.947 180.219 134.159 180.208 133.333V119.792H166.667C165.838 119.792 165.043 119.462 164.457 118.876C163.871 118.29 163.542 117.495 163.542 116.667C163.542 115.838 163.871 115.043 164.457 114.457C165.043 113.871 165.838 113.542 166.667 113.542H183.333C184.159 113.552 184.947 113.885 185.531 114.469C186.115 115.053 186.448 115.841 186.458 116.667V133.333C186.448 134.159 186.115 134.947 185.531 135.531C184.947 136.115 184.159 136.448 183.333 136.458V136.458Z" fill="#DDDDDD"/>
<path d="M156.25 146.875C155.446 146.814 154.698 146.44 154.167 145.833C153.654 145.26 153.371 144.519 153.371 143.75C153.371 142.981 153.654 142.24 154.167 141.667L181.25 114.583C181.536 114.276 181.881 114.03 182.264 113.859C182.648 113.688 183.062 113.597 183.481 113.589C183.901 113.582 184.318 113.659 184.707 113.816C185.096 113.973 185.449 114.207 185.746 114.504C186.043 114.801 186.277 115.154 186.434 115.543C186.591 115.932 186.668 116.349 186.661 116.769C186.653 117.188 186.562 117.602 186.391 117.986C186.22 118.369 185.974 118.714 185.667 119L158.333 145.833C157.802 146.44 157.054 146.814 156.25 146.875Z" fill="#DDDDDD"/>
<path d="M275 186.458H225C221.961 186.458 219.047 185.251 216.898 183.102C214.749 180.953 213.542 178.039 213.542 175V125C213.542 121.961 214.749 119.047 216.898 116.898C219.047 114.749 221.961 113.542 225 113.542H250C250.829 113.542 251.624 113.871 252.21 114.457C252.796 115.043 253.125 115.838 253.125 116.667C253.125 117.495 252.796 118.29 252.21 118.876C251.624 119.462 250.829 119.792 250 119.792H225C223.619 119.792 222.294 120.34 221.317 121.317C220.34 122.294 219.792 123.619 219.792 125V175C219.792 176.381 220.34 177.706 221.317 178.683C222.294 179.66 223.619 180.208 225 180.208H275C276.381 180.208 277.706 179.66 278.683 178.683C279.66 177.706 280.208 176.381 280.208 175V150C280.208 149.171 280.538 148.376 281.124 147.79C281.71 147.204 282.505 146.875 283.333 146.875C284.162 146.875 284.957 147.204 285.543 147.79C286.129 148.376 286.458 149.171 286.458 150V175C286.458 178.039 285.251 180.953 283.102 183.102C280.953 185.251 278.039 186.458 275 186.458ZM283.333 136.458C282.508 136.448 281.719 136.115 281.136 135.531C280.552 134.947 280.219 134.159 280.208 133.333V119.792H266.667C265.838 119.792 265.043 119.462 264.457 118.876C263.871 118.29 263.542 117.495 263.542 116.667C263.542 115.838 263.871 115.043 264.457 114.457C265.043 113.871 265.838 113.542 266.667 113.542H283.333C284.159 113.552 284.947 113.885 285.531 114.469C286.115 115.053 286.448 115.841 286.458 116.667V133.333C286.448 134.159 286.115 134.947 285.531 135.531C284.947 136.115 284.159 136.448 283.333 136.458V136.458Z" fill="#777777"/>
<path d="M256.25 146.875C255.446 146.814 254.698 146.44 254.167 145.833C253.654 145.26 253.371 144.519 253.371 143.75C253.371 142.981 253.654 142.24 254.167 141.667L281.25 114.583C281.536 114.276 281.881 114.03 282.264 113.859C282.648 113.688 283.062 113.597 283.481 113.589C283.901 113.582 284.318 113.659 284.707 113.816C285.096 113.973 285.449 114.207 285.746 114.504C286.043 114.801 286.277 115.154 286.434 115.543C286.591 115.932 286.668 116.349 286.661 116.769C286.653 117.188 286.562 117.602 286.391 117.986C286.22 118.369 285.974 118.714 285.667 119L258.333 145.833C257.802 146.44 257.054 146.814 256.25 146.875Z" fill="#777777"/>
<path d="M309 132.262C309.008 136.524 310.562 140.639 313.373 143.842C316.185 147.045 320.062 149.12 324.287 149.681C325.478 155.05 328.317 159.913 332.408 163.589C336.498 167.264 341.635 169.569 347.101 170.181V178.944H335.404C332.297 178.944 329.318 180.178 327.121 182.375C324.924 184.572 323.69 187.551 323.69 190.658V193.587C323.69 194.363 323.998 195.108 324.547 195.657C325.097 196.207 325.842 196.515 326.618 196.515H373.475C374.252 196.515 374.997 196.207 375.546 195.657C376.095 195.108 376.404 194.363 376.404 193.587V190.658C376.404 187.551 375.17 184.572 372.973 182.375C370.776 180.178 367.797 178.944 364.69 178.944H352.958V170.187C358.421 169.574 363.557 167.27 367.646 163.595C371.735 159.921 374.574 155.06 375.766 149.693C379.982 149.132 383.851 147.059 386.653 143.859C389.456 140.66 391 136.551 391 132.297V123.488C391 121.158 390.074 118.923 388.427 117.276C386.779 115.628 384.544 114.703 382.214 114.703H376.386C376.383 111.598 375.148 108.621 372.951 106.427C370.755 104.233 367.777 103 364.672 103H335.386C332.281 102.998 329.301 104.23 327.104 106.425C324.906 108.619 323.669 111.597 323.666 114.703H317.786C315.456 114.703 313.221 115.628 311.573 117.276C309.926 118.923 309 121.158 309 123.488V132.262V132.262ZM317.786 120.56H323.672V143.602C321.156 142.953 318.925 141.488 317.33 139.436C315.735 137.384 314.865 134.861 314.857 132.262V123.488C314.857 122.712 315.166 121.967 315.715 121.417C316.264 120.868 317.009 120.56 317.786 120.56V120.56ZM376.386 120.56H382.214C382.991 120.56 383.736 120.868 384.285 121.417C384.834 121.967 385.143 122.712 385.143 123.488V132.303C385.143 137.745 381.424 142.319 376.386 143.619V120.56ZM370.529 114.714V143.988C370.547 149.358 368.457 154.52 364.709 158.365C360.962 162.21 355.855 164.431 350.486 164.551C345.118 164.671 339.917 162.679 336.002 159.005C332.086 155.331 329.768 150.267 329.547 144.902V114.703H329.529C329.532 113.151 330.151 111.664 331.249 110.569C332.347 109.473 333.835 108.857 335.386 108.857H364.672C366.226 108.857 367.715 109.474 368.814 110.573C369.912 111.671 370.529 113.161 370.529 114.714ZM329.547 190.658C329.547 189.105 330.164 187.615 331.262 186.516C332.361 185.418 333.851 184.801 335.404 184.801H364.69C366.243 184.801 367.733 185.418 368.831 186.516C369.93 187.615 370.547 189.105 370.547 190.658H329.547Z" fill="black"/>
<path d="M475 141.667C478.209 141.665 481.351 142.59 484.047 144.33C486.743 146.071 488.88 148.553 490.2 151.478C491.52 154.403 491.967 157.647 491.488 160.821C491.009 163.994 489.625 166.961 487.5 169.367V188.533C487.501 189.068 487.365 189.595 487.104 190.062C486.843 190.529 486.467 190.922 486.011 191.202C485.556 191.482 485.036 191.64 484.501 191.662C483.966 191.684 483.435 191.568 482.958 191.325L482.583 191.096L475 185.796L467.417 191.096C466.979 191.402 466.47 191.59 465.938 191.643C465.407 191.696 464.87 191.612 464.381 191.399C463.891 191.186 463.464 190.851 463.141 190.426C462.817 190.001 462.608 189.5 462.533 188.971L462.504 188.533V169.358C460.383 166.953 459 163.987 458.522 160.815C458.045 157.644 458.492 154.402 459.812 151.478C461.131 148.555 463.266 146.074 465.96 144.334C468.654 142.593 471.793 141.667 475 141.667V141.667ZM481.25 173.792C479.264 174.595 477.142 175.006 475 175.004C472.858 175.006 470.736 174.595 468.75 173.792V182.537L473.213 179.425C473.669 179.105 474.204 178.913 474.76 178.869C475.316 178.825 475.874 178.931 476.375 179.175L476.792 179.425L481.25 182.537V173.792V173.792ZM480.208 112.517C483.126 112.517 485.934 113.63 488.06 115.629C490.185 117.628 491.468 120.363 491.646 123.275L491.667 123.975L491.671 145.833C489.981 143.584 487.855 141.698 485.421 140.287L485.417 123.975C485.417 122.686 484.94 121.442 484.076 120.484C483.212 119.527 482.024 118.924 480.742 118.792L480.208 118.767H419.792C418.502 118.766 417.258 119.244 416.301 120.107C415.343 120.971 414.74 122.159 414.608 123.442L414.583 123.975V163.558C414.583 166.254 416.633 168.475 419.258 168.737L419.792 168.767L456.967 168.771L457.479 169.617L458.038 170.433L458.333 170.825L458.329 175.017H419.792C416.873 175.017 414.065 173.903 411.939 171.903C409.814 169.903 408.531 167.167 408.354 164.254L408.333 163.558V123.975C408.333 121.057 409.446 118.249 411.445 116.124C413.445 113.998 416.179 112.716 419.092 112.537L419.792 112.517H480.208V112.517ZM475 147.917C472.237 147.917 469.587 149.014 467.633 150.968C465.679 152.922 464.581 155.572 464.581 158.335C464.581 161.099 465.679 163.749 467.633 165.703C469.587 167.656 472.237 168.754 475 168.754C477.763 168.754 480.413 167.656 482.367 165.703C484.321 163.749 485.419 161.099 485.419 158.335C485.419 155.572 484.321 152.922 482.367 150.968C480.413 149.014 477.763 147.917 475 147.917ZM446.875 152.083C447.667 152.084 448.429 152.384 449.007 152.925C449.586 153.465 449.938 154.205 449.992 154.995C450.046 155.785 449.798 156.566 449.298 157.18C448.799 157.795 448.084 158.196 447.3 158.304L446.875 158.333H428.125C427.333 158.333 426.571 158.032 425.993 157.492C425.414 156.951 425.062 156.211 425.008 155.421C424.954 154.631 425.202 153.85 425.702 153.236C426.201 152.622 426.916 152.22 427.7 152.112L428.125 152.083H446.875ZM471.875 129.167C472.667 129.167 473.429 129.468 474.007 130.008C474.586 130.549 474.938 131.289 474.992 132.079C475.046 132.869 474.798 133.65 474.298 134.264C473.799 134.878 473.084 135.28 472.3 135.387L471.875 135.417H428.125C427.333 135.416 426.571 135.116 425.993 134.575C425.414 134.035 425.062 133.295 425.008 132.505C424.954 131.715 425.202 130.934 425.702 130.32C426.201 129.705 426.916 129.304 427.7 129.196L428.125 129.167H471.875Z" fill="black"/>
</svg>
